<svg width="80" height="80" viewBox="0 0 80 80" fill="none" xmlns="http://www.w3.org/2000/svg">
<g clip-path="url(#clip0_1_2506)">
<path d="M23.4667 14.3999C23.2889 14.0444 22.9778 13.8221 22.5333 13.7332C22.0889 13.6444 21.6889 13.6888 21.3333 13.8666C20.9778 14.2221 20.7111 14.5777 20.5333 14.9333C20.3556 15.2888 20.4 15.6888 20.6667 16.1332C20.9333 16.5777 21.2889 16.7999 21.7333 16.7999C22.1778 16.7999 22.5778 16.711 22.9333 16.5332C23.2889 16.3555 23.5111 16.0444 23.6 15.5999C23.6889 15.1555 23.6444 14.7555 23.4667 14.3999ZM79.2 26.6666L40.8 2.93325C40.2667 2.57769 39.7333 2.57769 39.2 2.93325L26.4 10.9333C25.8667 11.111 25.5556 11.4221 25.4667 11.8666C25.3778 12.311 25.4667 12.711 25.7333 13.0666C26 13.4221 26.3556 13.6444 26.8 13.7332C27.2444 13.8221 27.6444 13.7777 28 13.5999L40 6.13325L75.4667 27.9999L40 49.8666L20.8 38.1333L37.0667 28.5332C37.9556 29.2444 38.9778 29.5999 40.1333 29.5999C41.2889 29.5999 42.3556 29.111 43.3333 28.1333C44.3111 27.1555 44.8 26.0444 44.8 24.7999C44.8 23.5555 44.3111 22.4888 43.3333 21.5999C42.3556 20.711 41.2444 20.2666 40 20.2666C38.7556 20.2666 37.6444 20.711 36.6667 21.5999C35.6889 22.4888 35.2 23.5555 35.2 24.7999L35.4667 25.8666L17.8667 36.2666L4.53333 27.9999L16.8 20.2666C17.1556 20.0888 17.3778 19.7777 17.4667 19.3332C17.5556 18.8888 17.5111 18.4888 17.3333 18.1332C17.1556 17.7777 16.8444 17.5555 16.4 17.4666C15.9556 17.3777 15.5556 17.4221 15.2 17.5999L0.8 26.6666C0.266667 27.0221 0 27.4666 0 27.9999C0 28.5332 0.266667 28.9777 0.8 29.3332L14.9333 37.8666L13.0667 38.9333C11.6444 39.8221 10.5333 40.9777 9.73333 42.3999C8.93333 43.8221 8.53333 45.3333 8.53333 46.9333V49.5999C7.64444 49.9555 6.88889 50.4888 6.26667 51.1999C5.64444 51.911 5.33333 52.7999 5.33333 53.8666V56.5333C4.08889 57.7777 3.46667 59.3777 3.46667 61.3333V75.7333C3.46667 76.2666 3.6 76.6666 3.86667 76.9333C4.13333 77.1999 4.53333 77.3333 5.06667 77.3333H14.9333C15.4667 77.3333 15.8667 77.1999 16.1333 76.9333C16.4 76.6666 16.5333 76.2666 16.5333 75.7333V61.3333C16.5333 59.3777 15.9111 57.7777 14.6667 56.5333V53.8666C14.6667 52.7999 14.3556 51.911 13.7333 51.1999C13.1111 50.4888 12.3556 49.9555 11.4667 49.5999V46.9333C11.4667 45.8666 11.7333 44.8888 12.2667 43.9999C12.8 43.111 13.6 42.3999 14.6667 41.8666L16.5333 40.5332V55.7333C16.5333 56.0888 16.7111 56.4444 17.0667 56.7999C17.4222 57.1555 17.7778 57.3333 18.1333 57.3333C22.0444 57.3333 25.7778 58.0888 29.3333 59.5999C32.8889 61.111 36.0889 63.2888 38.9333 66.1333C39.2889 66.311 39.6444 66.3999 40 66.3999C40.3556 66.3999 40.7111 66.311 41.0667 66.1333C43.9111 63.2888 47.1111 61.111 50.6667 59.5999C54.2222 58.0888 57.9556 57.3333 61.8667 57.3333C62.2222 57.3333 62.5778 57.1555 62.9333 56.7999C63.2889 56.4444 63.4667 56.0888 63.4667 55.7333V53.0666C63.4667 52.5333 63.2889 52.1333 62.9333 51.8666C62.5778 51.5999 62.2222 51.4666 61.8667 51.4666C61.5111 51.4666 61.1556 51.5999 60.8 51.8666C60.4444 52.1333 60.2667 52.5333 60.2667 53.0666V54.1333C53.3333 54.4888 47.1111 56.8888 41.6 61.3333V58.1333C41.6 57.7777 41.4222 57.4221 41.0667 57.0666C40.7111 56.711 40.3556 56.5333 40 56.5333C39.6444 56.5333 39.2889 56.711 38.9333 57.0666C38.5778 57.4221 38.4 57.7777 38.4 58.1333V61.3333C32.8889 56.8888 26.6667 54.4888 19.7333 54.1333V41.0666L39.2 53.0666C39.3778 53.2444 39.6444 53.3333 40 53.3333C40.3556 53.3333 40.6222 53.2444 40.8 53.0666L60.2667 41.0666V42.6666C60.2667 43.1999 60.4444 43.5999 60.8 43.8666C61.1556 44.1333 61.5111 44.2666 61.8667 44.2666C62.2222 44.2666 62.5778 44.1333 62.9333 43.8666C63.2889 43.5999 63.4667 43.1999 63.4667 42.6666V39.1999L79.2 29.3332C79.7333 28.9777 80 28.5332 80 27.9999C80 27.4666 79.7333 27.0221 79.2 26.6666ZM40 23.1999C40.3556 23.1999 40.7111 23.3777 41.0667 23.7332C41.4222 24.0888 41.6 24.4888 41.6 24.9333C41.6 25.3777 41.4222 25.7332 41.0667 25.9999C40.7111 26.2666 40.3556 26.3999 40 26.3999C39.6444 26.3999 39.2889 26.2666 38.9333 25.9999C38.5778 25.7332 38.4 25.3777 38.4 24.9333C38.4 24.4888 38.5778 24.0888 38.9333 23.7332C39.2889 23.3777 39.6444 23.1999 40 23.1999ZM8.53333 53.8666C8.53333 53.511 8.66667 53.1555 8.93333 52.7999C9.2 52.4444 9.55556 52.2666 10 52.2666C10.4444 52.2666 10.8 52.4444 11.0667 52.7999C11.3333 53.1555 11.4667 53.511 11.4667 53.8666V54.6666H8.53333V53.8666ZM13.3333 61.3333V74.1333H6.66667V61.3333C6.66667 60.2666 6.97778 59.4221 7.6 58.7999C8.22222 58.1777 9.02222 57.8666 10 57.8666C10.9778 57.8666 11.7778 58.1777 12.4 58.7999C13.0222 59.4221 13.3333 60.2666 13.3333 61.3333ZM62.9333 46.3999C62.5778 46.0444 62.2222 45.8666 61.8667 45.8666C61.5111 45.8666 61.1556 46.0444 60.8 46.3999C60.4444 46.7555 60.2667 47.1555 60.2667 47.5999C60.2667 48.0444 60.4444 48.3999 60.8 48.6666C61.1556 48.9333 61.5111 49.0666 61.8667 49.0666C62.2222 49.0666 62.5778 48.9333 62.9333 48.6666C63.2889 48.3999 63.4667 48.0444 63.4667 47.5999C63.4667 47.1555 63.2889 46.7555 62.9333 46.3999Z" fill="white"/>
</g>
<defs>
<clipPath id="clip0_1_2506">
<rect width="80" height="80" fill="white" transform="matrix(1 0 0 -1 0 80)"/>
</clipPath>
</defs>
</svg>
