<svg width="48" height="37" viewBox="0 0 48 37" fill="none" xmlns="http://www.w3.org/2000/svg">
<path fill-rule="evenodd" clip-rule="evenodd" d="M2.65238 1.10962C1.80721 1.42268 1.20761 2.05388 0.880227 2.97518C0.709368 3.4561 0.704346 3.89815 0.704346 18.5032C0.704346 33.3794 0.706263 33.5418 0.889999 34.067C1.13811 34.7759 1.68841 35.4235 2.32856 35.7596L2.85036 36.0336L16.7766 36.0609C24.436 36.0758 30.7945 36.0642 30.9067 36.035C31.1139 35.9811 31.3878 35.5358 31.3878 35.2528C31.3878 35.1672 31.2868 34.9893 31.1636 34.8574L30.9395 34.6177L17.2145 34.6171C8.48889 34.6168 3.3717 34.5816 3.16596 34.5205C2.79876 34.4114 2.31522 33.9217 2.17103 33.5128C2.03515 33.1273 2.03515 3.88438 2.17103 3.49887C2.31522 3.09002 2.79876 2.60031 3.16596 2.49124C3.60986 2.35932 44.5545 2.35932 44.9984 2.49124C45.3656 2.60031 45.8491 3.09002 45.9933 3.49887C46.1292 3.88438 46.1292 33.1273 45.9933 33.5128C45.8491 33.9217 45.3656 34.4114 44.9984 34.5205C44.8192 34.5737 43.4489 34.6168 41.9282 34.6171L39.1818 34.6177L38.9832 34.8437C38.6999 35.1662 38.7209 35.6241 39.0309 35.8849C39.2724 36.0879 39.337 36.0914 42.2956 36.0628L45.314 36.0336L45.8358 35.7596C46.4544 35.4348 47.0234 34.7819 47.2421 34.1458C47.3283 33.8951 47.4332 33.6483 47.4751 33.5973C47.5721 33.4792 47.5762 3.24488 47.4792 3.30894C47.4395 3.33521 47.3374 3.14704 47.2523 2.89072C47.0388 2.2481 46.4622 1.58097 45.8358 1.25209L45.314 0.978091L24.2192 0.956413C4.15513 0.93581 3.10121 0.943329 2.65238 1.10962ZM0.74891 18.5059C0.74891 26.8572 0.759685 30.2736 0.772835 26.098C0.785985 21.9224 0.785985 15.0894 0.772835 10.9137C0.759685 6.73813 0.74891 10.1545 0.74891 18.5059ZM6.59446 4.92003C5.75551 5.15536 5.01153 5.80706 4.62634 6.6442C4.44188 7.04504 4.40297 7.2749 4.40407 7.9599C4.40517 8.66941 4.44087 8.86226 4.65018 9.28869C4.96066 9.92125 5.69423 10.6305 6.24599 10.8315C7.25197 11.198 8.50195 10.9218 9.22155 10.1739C9.85777 9.5127 10.0649 8.95571 10.0631 7.91108C10.0618 7.18673 10.025 6.95852 9.85366 6.61285C9.33634 5.5691 8.49355 4.96173 7.45753 4.88615C7.13352 4.86252 6.74514 4.87775 6.59446 4.92003ZM11.8869 5.85608C11.6129 6.14893 11.6009 6.48249 11.852 6.82377L12.0412 7.08107H16.7275C21.0623 7.08107 21.4285 7.06818 21.6119 6.90941C21.9094 6.65181 21.8939 6.13282 21.5801 5.84417L21.3324 5.61636H16.7217H12.111L11.8869 5.85608ZM6.7771 6.44343C5.6304 6.88695 5.40073 8.49345 6.37749 9.2383C6.79381 9.55585 7.68829 9.57372 8.06608 9.27209C8.71947 8.75046 8.90439 7.993 8.56249 7.23789C8.22872 6.50056 7.48492 6.16963 6.7771 6.44343ZM12.0612 8.85533C11.8668 8.95601 11.6627 9.31818 11.6627 9.5625C11.6627 9.63329 11.7479 9.80701 11.852 9.9485L12.0412 10.2058H14.5459C16.9288 10.2058 17.0594 10.1963 17.2332 10.0105C17.5052 9.71971 17.4768 9.1971 17.1752 8.94351C16.9455 8.75026 16.8286 8.74138 14.5954 8.74772C13.1843 8.75173 12.1789 8.7944 12.0612 8.85533ZM23.2146 10.7417C22.9635 10.8146 19.4911 12.3926 15.4981 14.2484C7.72308 17.8621 7.82801 17.8041 7.69459 18.5646C7.66254 18.7471 7.66254 19.0457 7.69459 19.2283C7.81449 19.9119 8.08033 20.0998 10.5451 21.2436C11.814 21.8324 12.9749 22.3141 13.1249 22.3141C13.276 22.3141 13.4793 22.2269 13.5804 22.1188C13.7979 21.8862 13.8215 21.3732 13.6253 21.1414C13.5494 21.0517 12.5015 20.5238 11.2966 19.9681C10.0916 19.4125 9.10575 18.9323 9.10575 18.901C9.10575 18.8055 23.466 12.1832 23.8102 12.1198C23.9871 12.0873 24.3364 12.1184 24.5864 12.1891C25.0852 12.3302 39.0586 18.8096 39.0586 18.8999C39.0586 18.9305 37.6717 19.5991 35.9766 20.3856L32.8945 21.8154L32.8489 20.5578C32.8098 19.4802 32.7758 19.2609 32.6117 19.0251C31.9029 18.0067 28.7359 17.4053 24.0822 17.4053C19.3186 17.4053 16.1952 18.0177 15.5235 19.0835C15.317 19.4111 15.3155 19.4379 15.3155 22.7961C15.3155 26.1097 15.3197 26.1875 15.521 26.6143C15.6711 26.9327 15.8362 27.1092 16.1339 27.2697L16.5414 27.4894H24.0822H31.623L32.0305 27.2697C32.3282 27.1092 32.4933 26.9327 32.6434 26.6143C32.8269 26.2252 32.8489 26.0344 32.8489 24.8298V23.481L33.5452 23.1417C33.9282 22.9551 34.2775 22.8024 34.3214 22.8024C34.3658 22.8024 34.4013 24.5799 34.4013 26.7994C34.4013 30.7804 34.4006 30.7966 34.2085 30.8617C33.8927 30.9689 33.2888 31.6114 33.1106 32.0301C32.9712 32.3573 32.9438 32.6849 32.9422 34.0491L32.9402 35.6777L33.1808 35.88C33.4045 36.0682 33.5401 36.0824 35.1026 36.0824C36.7659 36.0824 36.7863 36.0799 37.008 35.8427C37.2269 35.6088 37.2321 35.5677 37.2282 34.1095C37.2255 33.1194 37.183 32.4924 37.1019 32.2496C36.9239 31.7162 36.5426 31.2263 36.1302 31.0013L35.7692 30.8045L35.793 26.444L35.8168 22.0837L37.8714 21.1269C40.0407 20.1168 40.2484 19.9679 40.4395 19.2857C40.5774 18.7938 40.4294 18.1971 40.0777 17.8269C39.8024 17.5371 25.7737 10.9764 24.9221 10.7392C24.299 10.5657 23.8188 10.5664 23.2146 10.7417ZM21.2056 18.9558C19.0065 19.1862 17.6487 19.4325 17.0136 19.7163L16.6853 19.863V21.3327V22.8024H24.0822H31.4791V21.3411C31.4791 19.655 31.5645 19.8048 30.4245 19.4938C28.9489 19.0913 27.7465 18.9789 24.5844 18.9474C22.927 18.931 21.4065 18.9347 21.2056 18.9558ZM16.7045 25.1703L16.7309 25.9759H24.0822H31.4334L31.4599 25.1703L31.4865 24.3647H24.0822H16.6779L16.7045 25.1703ZM34.5342 32.4163C34.3259 32.6389 34.31 32.7255 34.31 33.6369V34.6177H35.0948H35.8795L35.8482 33.6327C35.8182 32.6933 35.8049 32.6366 35.5605 32.4121C35.2256 32.1043 34.8244 32.1058 34.5342 32.4163Z" fill="white"/>
</svg>
