<svg width="109" height="84" viewBox="0 0 109 84" fill="none" xmlns="http://www.w3.org/2000/svg">
<g opacity="0.33">
<path d="M50.602 64.6386C36.782 61.3886 21.922 59.4386 7.76201 61.2186C7.34201 60.6886 6.32201 60.7886 6.36201 61.6386C6.38201 61.8286 6.42201 62.0386 6.42201 62.2286C6.76201 65.4786 5.95201 68.5286 3.96201 71.3986C3.56201 71.6786 3.32201 72.1186 3.30201 72.5686C3.24201 73.1886 3.56201 73.8386 4.30201 74.0086C18.522 77.2186 32.962 79.4886 47.542 80.3586C52.632 80.6586 65.602 83.5386 66.792 75.5786C67.952 67.7186 55.492 65.7886 50.602 64.6386Z" fill="#FFFAF3"/>
<path d="M100.432 40.6986C96.162 37.7286 86.042 38.9986 81.072 38.6986C52.332 36.8986 53.712 35.3486 53.712 35.3486C36.862 42.8186 20.082 50.5686 2.97201 57.3886C1.17201 58.1086 0.572008 61.2286 2.97201 61.6586C4.12201 61.8686 5.26201 62.0386 6.41201 62.2086C14.772 63.3986 23.202 63.7386 31.592 64.5686C37.022 65.0986 42.442 65.7986 47.722 67.1986C51.952 68.3186 65.422 69.4686 61.652 77.8386C59.662 82.2786 49.102 79.1986 43.182 78.7686C29.762 77.7886 16.392 75.6686 3.29201 72.5486C3.06201 72.5086 2.82201 72.4586 2.59201 72.3986C-0.0179889 71.7786 -1.11799 75.8386 1.49201 76.4086C18.202 80.0186 36.032 83.6886 53.242 83.1586C57.722 83.0286 61.972 82.2686 66.102 80.9986C66.332 80.9386 66.552 80.8686 66.782 80.7886V80.7686C66.822 80.6786 66.862 80.5586 66.872 80.4686H66.892L72.222 76.8586L81.262 70.7686L85.652 67.7986L92.652 63.0886L97.192 60.0286L98.292 59.2886C99.752 58.3086 100.882 56.8986 101.462 55.2386C103.482 49.4686 104.052 43.2286 100.432 40.6986Z" fill="#7EC7A9"/>
<path d="M92.8518 61.1786C93.1018 56.4186 92.4518 52.8386 89.3718 49.1186C88.9518 48.6086 89.1418 47.9886 89.7518 47.7386C95.0418 45.5086 96.7818 54.0386 97.0718 57.5286C97.1518 58.3386 97.1818 59.1686 97.1818 60.0386L92.6418 63.0986C92.7618 62.4786 92.8118 61.8386 92.8518 61.1786Z" fill="#F9DB97"/>
<path d="M85.6724 67.4886C85.6724 67.5786 85.6724 67.6986 85.6524 67.8086L81.2624 70.7786C81.6424 69.1686 81.7524 67.4886 81.6024 65.8586C81.2024 61.6786 78.0824 58.5186 77.8424 54.4986C77.8224 54.0786 78.3324 53.8386 78.6724 54.0286C83.4224 56.7686 85.6724 62.0686 85.6724 67.4886Z" fill="#F9DB97"/>
<path d="M72.2317 76.8686L66.9017 80.4785C67.5017 78.6485 68.1517 76.8286 68.3017 74.9586C68.6217 70.5686 67.0517 67.0985 65.4817 63.1585C65.1217 62.2485 66.3717 61.3585 67.1217 61.8685C70.8817 64.4385 72.1517 69.1285 72.2817 73.4985C72.3217 74.5285 72.3017 75.6786 72.2317 76.8686Z" fill="#F9DB97"/>
<path d="M57.8118 74.0186C42.5118 67.5186 26.7318 68.0786 10.5218 66.3786C10.1218 66.3386 10.1318 66.9486 10.5218 66.9986C26.8118 68.8886 41.6918 69.7786 57.3118 75.2086C58.0018 75.4386 58.5018 74.3086 57.8118 74.0186Z" fill="#F9DB97"/>
<path d="M51.0324 74.7686C37.5324 70.2686 22.9124 73.3086 9.52244 68.1786C9.15244 68.0386 8.99244 68.6386 9.36244 68.7786C22.6824 73.9286 37.2324 71.4686 50.8324 75.5086C51.3024 75.6586 51.5024 74.9286 51.0324 74.7686Z" fill="#F9DB97"/>
<path d="M48.8222 76.4786C35.0422 74.5786 21.2522 72.9986 7.52222 70.7086C6.98222 70.6186 6.75222 71.4286 7.29222 71.5386C20.9322 74.1086 34.8522 76.3686 48.7222 77.2386C49.1522 77.2586 49.2622 76.5386 48.8222 76.4786Z" fill="#F9DB97"/>
<path d="M49.5723 46.1386C43.4623 45.5886 37.5823 43.2086 31.4823 42.7586C26.6623 42.3986 20.1023 44.3286 15.3023 45.2186C14.8523 45.2986 14.4723 45.6686 14.2623 46.0886C14.2223 46.1786 14.1823 46.2586 14.1723 46.3486C13.6423 48.3686 14.2123 50.5786 14.4323 52.6286C14.4523 52.9286 14.5623 53.1586 14.7123 53.3686C14.5623 53.5986 14.5623 53.8786 14.8623 54.0086C15.2623 54.1786 15.6523 54.3486 16.0523 54.5186C25.5223 58.4886 36.3723 59.5486 46.5523 60.3786C52.3023 60.8486 59.9723 63.3486 60.6723 55.6486C61.3123 48.5186 55.1523 46.6486 49.5723 46.1386Z" fill="#FFFAF3"/>
<path d="M75.3818 53.2886L71.9018 55.1186L70.0318 56.1186L69.6718 56.3086L65.8718 58.3485L64.3618 59.1586H64.3418L63.5118 59.5886L60.6218 61.1285C60.3918 61.2485 60.1518 61.3386 59.9018 61.3986C57.8918 61.8386 55.9718 62.0986 54.1618 62.1786C39.3918 62.8586 25.1018 59.2686 10.7318 56.6786C9.16181 56.3986 9.52181 53.7085 11.1118 53.8785C12.7518 54.0685 14.4218 54.2786 16.0618 54.4986C24.3018 55.5986 32.5118 56.9786 40.7518 58.1486C47.0118 59.0186 52.2618 58.9386 57.3118 57.8086C64.7018 51.4586 50.2618 47.5786 47.7418 47.0686C43.3718 46.1986 38.7418 45.9886 34.2818 45.8186C27.6118 45.5886 20.9118 45.8186 14.2618 46.0686C13.9018 46.0886 13.5418 46.0886 13.1818 46.1086C10.9918 46.1886 10.8018 43.1186 12.6918 42.4786C14.0918 42.0086 15.4518 41.5286 16.7718 41.0786C17.0918 40.9686 17.4318 40.8486 17.7918 40.7186C18.0918 40.6286 18.3818 40.5086 18.6818 40.3986C25.6918 37.8986 39.4618 33.0486 63.0718 24.7586C64.2218 24.3286 93.9118 29.8786 96.3618 32.3386C99.3518 35.3286 99.1918 39.4486 96.7218 41.9286L96.6118 41.9886L96.2918 42.1586L93.1918 43.7986L91.7718 44.5586L89.8018 45.5986L87.1318 47.0186L84.3118 48.5086L84.2018 48.5686L81.2718 50.1386L79.6418 51.0086L78.0318 51.8586L75.3818 53.2886Z" fill="#FF8867"/>
<path d="M56.4923 53.7285C44.6323 47.9385 30.0923 50.4385 17.3823 48.1485C17.0823 48.0985 16.9523 48.5485 17.2523 48.6085C30.3323 51.0285 43.2023 50.7485 56.0523 54.7585C56.6623 54.9385 57.0723 54.0085 56.4923 53.7285Z" fill="#F9DB97"/>
<path d="M45.6119 54.5586C36.2719 52.5186 26.5719 51.1086 17.0719 50.0186C16.7119 49.9786 16.6319 50.5786 16.9819 50.6586C26.3319 52.6286 35.9919 54.3486 45.4919 55.3786C45.9619 55.4186 46.0619 54.6586 45.6119 54.5586Z" fill="#F9DB97"/>
<path d="M94.7117 43.0086L91.7717 44.5686C91.5917 40.5986 90.6617 38.0586 89.6017 34.9086C89.4717 34.5086 89.9017 33.9586 90.3417 34.0386C94.0017 34.6286 94.2017 38.9986 94.7117 43.0086Z" fill="#F9DB97"/>
<path d="M87.202 46.5786C87.542 42.4986 86.412 40.3786 84.402 37.0286C84.252 36.7486 84.492 36.3086 84.832 36.3686C88.612 36.9686 89.802 41.1686 89.802 45.6086L87.132 47.0286C87.182 46.8786 87.182 46.7286 87.202 46.5786Z" fill="#F9DB97"/>
<path d="M81.2815 50.1486C81.3615 49.3186 81.3715 48.4886 81.3215 47.6386C81.1315 44.6486 79.9615 42.0386 79.1115 39.1886C79.0215 38.8886 79.3915 38.6986 79.6215 38.8286C82.8015 40.6286 84.1015 44.4986 84.2115 48.5886L81.2815 50.1486Z" fill="#F9DB97"/>
<path d="M78.0522 51.8686C77.8622 48.0286 76.4822 44.3286 73.6822 41.7886C73.2622 41.4286 72.5122 41.8486 72.8122 42.3986C74.3422 45.0686 75.3222 48.1086 75.4422 51.1886C75.4822 51.8886 75.4422 52.5886 75.3822 53.2886L78.0522 51.8686Z" fill="#F9DB97"/>
<path d="M71.9019 55.1186C71.8419 51.5686 70.8619 48.0486 68.6919 45.4786C68.3519 45.0586 67.7619 45.5586 67.9519 46.0086C69.3119 49.0486 69.9719 52.0186 69.7619 55.3886C69.7419 55.6886 69.7019 56.0086 69.6719 56.3186L71.9019 55.1186Z" fill="#F9DB97"/>
<path d="M65.8716 58.3585L64.3616 59.1685H64.3416L63.5116 59.5985C63.7616 58.4285 63.9116 57.2385 63.8316 55.9885C63.6816 53.3785 62.7516 50.9385 61.6416 48.5985C61.4116 48.1485 62.0016 47.7485 62.3616 48.1085C64.7916 50.5885 66.1316 54.6085 65.8716 58.3585Z" fill="#F9DB97"/>
<path d="M52.1124 25.7886C41.4624 21.9886 26.8824 22.5986 15.7124 22.2986C14.7524 22.2686 14.2224 22.9286 14.1324 23.6386C13.9724 23.7486 13.8524 23.9086 13.8424 24.0786C13.8324 24.1886 13.8924 24.3086 13.9924 24.4286C17.0824 27.4386 18.7424 33.5486 12.8624 34.3286C12.7324 34.3386 12.6124 34.3886 12.4924 34.4486C12.2224 34.6286 11.9924 34.9186 11.9024 35.2186C11.8124 35.4586 11.7924 35.6486 11.8724 35.9186C12.1024 36.6086 12.6724 37.0186 13.4324 36.8986C13.8524 36.8386 14.2324 36.7086 14.6224 36.5386C26.6924 40.2386 39.8524 42.1086 52.2224 44.2086C57.1024 45.0286 59.6624 44.6186 60.9724 39.2086C62.5924 32.6086 57.9224 27.8586 52.1124 25.7886Z" fill="#FFFAF3"/>
<path d="M106.712 7.91858C104.182 3.80858 66.2918 -0.311412 66.2818 0.0185879C62.3118 0.0185879 58.2618 0.758576 54.0118 2.42858C39.8018 7.99858 23.8218 12.3486 10.6918 20.2086C10.5718 20.2986 10.4918 20.3886 10.4118 20.4786C8.80181 21.2186 9.20181 24.3586 11.2318 24.2286C12.1018 24.1786 12.9618 24.1186 13.8318 24.0886C20.3818 23.7386 26.8818 23.5686 33.4218 23.9786C37.2118 24.2186 40.9518 24.5086 44.6318 25.3786C47.3718 25.7786 49.9618 26.6886 52.3718 28.0986C57.8718 31.0486 58.7818 35.8186 55.1218 42.4086C53.6818 42.4486 52.2318 42.3886 50.7418 42.2386C37.7618 40.8786 25.0318 37.9286 12.4818 34.4586C11.9218 34.3186 11.3618 34.1586 10.8018 33.9986C8.56181 33.3586 7.41181 36.7686 9.67181 37.4486C24.5118 41.8786 42.7018 47.3486 58.3718 46.2386C58.6218 46.2086 58.8618 46.2086 59.0918 46.1786L63.3318 44.0886L65.7118 42.8986L71.1618 40.2286L73.3118 39.1786L78.3118 36.7086L80.1918 35.7986L84.6118 33.6086H84.6318L86.8618 32.4986L92.9118 29.5286L95.0818 28.4586L99.3118 26.3686L101.962 25.0786L105.312 23.4186C108.142 18.5886 109.382 12.2486 106.712 7.91858Z" fill="#FC697D"/>
<path d="M53.2917 31.7286C43.4517 25.1986 30.1017 25.7486 18.7617 25.8686C18.3617 25.8686 18.3317 26.4586 18.7317 26.4886C30.6217 27.2886 41.9717 26.7986 52.8817 32.3486C53.3117 32.5586 53.7017 31.9986 53.2917 31.7286Z" fill="#F9DB97"/>
<path d="M55.5416 34.2386C43.3116 32.3386 31.1216 30.1886 18.9016 28.2286C18.4916 28.1686 18.3616 28.8686 18.7716 28.9486C30.5416 31.3086 43.4116 35.2786 55.5016 35.0886C56.0616 35.0786 56.0816 34.3186 55.5416 34.2386Z" fill="#F9DB97"/>
<path d="M54.442 37.2286C42.742 35.1086 30.922 33.5986 19.212 31.4386C18.682 31.3386 18.402 32.1186 18.942 32.2486C30.332 35.1086 42.662 37.5486 54.402 37.9886C54.912 38.0186 54.912 37.3186 54.442 37.2286Z" fill="#F9DB97"/>
<path d="M53.6921 39.6886C42.2421 38.2386 30.9521 38.1786 19.9221 34.3186C19.5621 34.1886 19.3821 34.7486 19.7421 34.8786C30.5021 38.7386 42.2921 39.9686 53.6621 40.4286C54.1321 40.4486 54.1521 39.7486 53.6921 39.6886Z" fill="#F9DB97"/>
<path d="M101.982 25.0486L99.3325 26.3386C100.622 19.9286 101.682 13.2386 96.9125 8.37857C96.6925 8.15857 96.8725 7.69858 97.1925 7.74858C103.592 8.75858 103.452 17.6286 101.982 25.0486Z" fill="#F9DB97"/>
<path d="M92.9317 29.5086C93.3817 23.2886 92.7217 17.3086 89.4017 11.4586C89.2317 11.1486 89.5617 10.8086 89.8817 10.8986C93.6017 11.9086 94.3017 17.8486 94.7917 21.0686C95.1717 23.5086 95.2917 25.9986 95.1017 28.4486L92.9317 29.5086Z" fill="#F9DB97"/>
<path d="M86.882 32.4686L84.652 33.5786C85.752 27.0586 86.152 20.6886 81.952 14.7686C81.682 14.3786 82.072 13.8086 82.532 14.0986C87.702 17.3886 88.072 25.4286 86.882 32.4686Z" fill="#F9DB97"/>
<path d="M78.3423 36.6886C78.9723 29.8086 79.0123 22.5486 75.0523 17.0986C74.8023 16.7686 75.1423 16.3486 75.5323 16.5586C79.4823 18.6586 79.6323 23.9086 79.9923 27.9186C80.2523 30.5086 80.3523 33.1586 80.2223 35.7886L78.3423 36.6886Z" fill="#F9DB97"/>
<path d="M73.3417 39.1486L71.1917 40.1986C71.6917 37.9686 72.2017 35.7386 72.3317 33.4386C72.6117 28.7986 71.3017 25.2686 69.7417 20.9986C69.6217 20.6486 70.1317 20.4486 70.3617 20.6886C74.5917 25.1486 74.8217 32.6386 73.3417 39.1486Z" fill="#F9DB97"/>
<path d="M65.7424 42.8786L63.3624 44.0686C64.5224 37.6686 65.6024 30.7786 61.3424 25.6686C61.0724 25.3486 61.4724 24.8186 61.8424 25.0886C66.6324 28.5786 66.9224 36.2586 65.7424 42.8786Z" fill="#F9DB97"/>
<path opacity="0.2" d="M100.982 6.11855C93.8819 5.69855 88.1619 11.3985 81.9919 14.3385C73.8719 18.2085 65.0319 20.4785 57.1419 24.8085C56.3919 25.2185 56.9219 26.3085 57.7019 26.1485C72.4419 23.0285 88.7519 16.3686 101.632 8.55855C102.792 7.85855 102.252 6.19855 100.982 6.11855Z" fill="white"/>
<path opacity="0.2" d="M93.3517 39.6786C88.1717 40.0286 82.9817 42.8086 78.2317 44.7886C73.3217 46.8386 68.2817 48.9886 63.9717 52.1586C63.4117 52.5686 63.7217 53.5186 64.4617 53.3286C69.8217 51.9686 74.9317 49.5586 80.0517 47.5086C84.6017 45.6886 89.8717 44.5486 93.9017 41.7386C94.7317 41.1686 94.5417 39.5986 93.3517 39.6786Z" fill="white"/>
<path opacity="0.2" d="M100.722 45.1886C94.6025 46.8186 89.2125 51.7586 83.8525 55.0586C77.6525 58.8686 71.1825 62.2886 65.2125 66.4486C64.5225 66.9286 64.9225 68.2586 65.8225 67.9086C72.3025 65.4186 78.3525 61.9386 84.3725 58.4986C90.1325 55.2086 97.5925 52.2286 101.772 46.9986C102.422 46.1986 101.852 44.8886 100.722 45.1886Z" fill="white"/>
</g>
</svg>
