<svg width="64" height="95" viewBox="0 0 64 95" fill="none" xmlns="http://www.w3.org/2000/svg">
<path d="M46.5233 69.1455C46.5233 69.1455 45.9134 64.1555 46.9034 61.0155C49.0334 54.2355 62.2333 44.9655 61.8933 32.0955C61.5533 19.3255 53.5834 -1.36453 28.3234 2.46547C4.64337 6.06547 -1.02665 28.0655 3.36335 40.1655C8.91335 55.4755 21.5034 55.0155 26.9434 62.4255C27.9134 63.7555 29.6234 71.7055 29.6234 71.7055L46.5233 69.1455Z" stroke="#F0F0F5" stroke-width="3.8727" stroke-miterlimit="10" stroke-linecap="round" stroke-linejoin="round"/>
<path d="M50.6034 72.5654C50.9334 74.7454 49.4334 76.7754 47.2534 77.1154L30.6834 79.6354C28.5034 79.9654 26.4734 78.4655 26.1334 76.2854C25.8034 74.1054 27.3034 72.0754 29.4834 71.7454L46.0534 69.2254C48.2334 68.8854 50.2734 70.3854 50.6034 72.5654Z" stroke="#F0F0F5" stroke-width="3.8727" stroke-miterlimit="10" stroke-linecap="round" stroke-linejoin="round"/>
<path d="M51.8038 80.4555C52.1338 82.6355 50.6338 84.6655 48.4538 84.9955L31.8738 87.5155C29.6938 87.8455 27.6638 86.3455 27.3238 84.1655C26.9938 81.9855 28.4938 79.9555 30.6738 79.6155L47.2438 77.0955C49.4338 76.7755 51.4738 78.2755 51.8038 80.4555Z" stroke="#F0F0F5" stroke-width="3.8727" stroke-miterlimit="10" stroke-linecap="round" stroke-linejoin="round"/>
<path d="M41.1234 92.5754C45.4834 91.9154 48.5834 88.5454 48.0634 85.0654L32.2734 87.4654C32.8034 90.9454 36.7634 93.2354 41.1234 92.5754Z" stroke="#F0F0F5" stroke-width="3.8727" stroke-miterlimit="10" stroke-linecap="round" stroke-linejoin="round"/>
<path d="M36.2136 69.9155L19.4736 30.3755L29.0336 34.3055L31.4436 24.7155L35.8336 32.7155L44.2436 25.3755L40.2536 69.8755" stroke="#F0F0F5" stroke-width="3.8727" stroke-miterlimit="10" stroke-linecap="round" stroke-linejoin="round"/>
</svg>
