<svg width="31" height="23" viewBox="0 0 31 23" fill="none" xmlns="http://www.w3.org/2000/svg">
<path d="M28.2754 0.601562H2.72461C1.21923 0.601562 0 1.82836 0 3.32617V19.6738C0 21.1805 1.22819 22.3984 2.72461 22.3984H28.2754C29.7682 22.3984 31 21.1857 31 19.6738V3.32617C31 1.83103 29.7856 0.601562 28.2754 0.601562ZM27.8938 2.41797C27.3372 2.97167 17.7574 12.501 17.4266 12.83C16.912 13.3447 16.2278 13.628 15.5 13.628C14.7722 13.628 14.088 13.3446 13.5717 12.8283C13.3493 12.607 3.87518 3.18292 3.10618 2.41797H27.8938ZM1.81641 19.3041V3.69702L9.66558 11.5048L1.81641 19.3041ZM3.10733 20.582L10.9534 12.7858L12.289 14.1144C13.1467 14.9721 14.2871 15.4444 15.5 15.4444C16.7129 15.4444 17.8533 14.9721 18.7093 14.1161L20.0466 12.7858L27.8927 20.582H3.10733ZM29.1836 19.3041L21.3344 11.5048L29.1836 3.69702V19.3041Z" fill="#0D5EF4"/>
</svg>
