<svg width="90" height="90" viewBox="0 0 90 90" fill="none" xmlns="http://www.w3.org/2000/svg">
<circle cx="45" cy="45" r="45" fill="#F77E53"/>
<path d="M30.4897 51.3264L30.9544 52.2862C30.9544 52.2862 38.3234 58.2699 44.6352 58.2699C50.947 58.2699 58.3491 52.2862 58.3491 52.2862L58.7801 51.3264H58.7802C58.0718 49.2092 57.2018 46.3025 56.5915 43.2325L55.2428 42.4741H33.8295L32.6784 43.2322C32.0681 46.3023 31.198 49.2091 30.4896 51.3264H30.4897Z" fill="white"/>
<path d="M36.7484 42.7999L37.2429 42.4741H33.8295L32.6784 43.2322C32.0681 46.3023 31.198 49.2091 30.4896 51.3264H30.4897L30.9544 52.2862C30.9544 52.2862 32.0886 53.207 33.8478 54.3262C34.8789 50.8821 35.9303 46.9148 36.7484 42.7999Z" fill="white"/>
<path d="M68.7955 35.9515L45.8666 28.2024C45.0681 27.9325 44.2028 27.9325 43.4043 28.2024L20.4753 35.9515C19.8834 36.1515 19.8312 36.9685 20.3928 37.2422L42.9503 48.2399C44.0138 48.7584 45.257 48.7584 46.3205 48.2399L68.878 37.2422C69.4396 36.9685 69.3875 36.1515 68.7955 35.9515Z" fill="white"/>
<path d="M27.3324 37.2423C26.7707 36.9685 26.8229 36.1516 27.4149 35.9515L48.1051 28.959L45.8665 28.2024C45.068 27.9325 44.2027 27.9325 43.4042 28.2024L20.4753 35.9515C19.8834 36.1516 19.8312 36.9685 20.3928 37.2423L42.9503 48.2399C44.0138 48.7584 45.257 48.7584 46.3205 48.2399L48.1052 47.3698L27.3324 37.2423Z" fill="white"/>
<path d="M63.7148 55.4275C63.3042 55.4275 62.9714 55.0946 62.9714 54.684V40.9332C62.9714 40.5803 62.7329 40.2715 62.3914 40.1822L45.6108 35.7577C45.2137 35.653 44.9767 35.2462 45.0814 34.8492C45.1861 34.4521 45.5926 34.2148 45.9899 34.3198L62.769 38.7439C63.7631 39.0035 64.4584 39.9039 64.4584 40.9331V54.6838C64.4583 55.0946 64.1255 55.4275 63.7148 55.4275Z" fill="white"/>
<path d="M65.0165 56.3367H62.4132L62.1037 61.1515C62.0781 61.5504 62.3857 61.8886 62.7744 61.8886H64.6554C65.044 61.8886 65.3517 61.5504 65.326 61.1515L65.0165 56.3367Z" fill="white"/>
<path d="M63.7978 61.1515L64.1074 56.3367H62.4132L62.1037 61.1515C62.0781 61.5504 62.3857 61.8885 62.7744 61.8885H64.4686C64.0799 61.8885 63.7722 61.5504 63.7978 61.1515Z" fill="white"/>
<path d="M64.3176 52.8765H63.1124C62.512 52.8765 62.0209 53.3677 62.0209 53.9681V56.135C62.0209 56.3321 62.1807 56.4919 62.3778 56.4919H65.0523C65.2494 56.4919 65.4092 56.3321 65.4092 56.135V53.9681C65.4091 53.3676 64.9179 52.8765 64.3176 52.8765Z" fill="white"/>
<path d="M63.9375 56.1345V53.9676C63.9375 53.4919 64.2465 53.0857 64.6734 52.9371C64.5617 52.8982 64.4423 52.876 64.3176 52.876H63.1125C62.5121 52.876 62.0209 53.3672 62.0209 53.9676V56.1345C62.0209 56.3317 62.1807 56.4914 62.3778 56.4914H64.2945C64.0973 56.4914 63.9375 56.3317 63.9375 56.1345Z" fill="white"/>
<path d="M44.7888 32.9697C43.3592 32.8831 42.1729 34.0168 42.1729 35.4277V35.4402C42.176 36.0747 42.7076 36.5805 43.3422 36.5805H45.929C46.5424 36.5805 47.1336 36.1059 47.0952 35.307C47.0358 34.0647 46.0304 33.0449 44.7888 32.9697Z" fill="white"/>
<path d="M44.4034 35.4402C44.4034 35.4361 44.4034 35.4319 44.4034 35.4277C44.4034 34.471 44.9493 33.6423 45.7462 33.2346C45.4546 33.0852 45.1313 32.9905 44.7888 32.9697C43.3592 32.8831 42.1729 34.0168 42.1729 35.4277V35.4402C42.176 36.0747 42.7076 36.5805 43.3422 36.5805H45.5727C44.9382 36.5805 44.4066 36.0747 44.4034 35.4402Z" fill="white"/>
<path d="M58.7804 51.3262C56.1962 53.4501 51.9942 55.8273 47.4546 57.2903C45.6552 57.8703 43.6609 57.885 41.8157 57.2903C37.2864 55.8306 33.0859 53.4589 30.4899 51.3262C30.2415 52.0684 30.0129 52.714 29.8225 53.2349C29.4954 54.1298 29.7772 55.1357 30.5263 55.7245C34.6765 58.9864 39.0573 60.7686 41.8157 61.6576C42.7266 61.9512 43.6781 62.098 44.6351 62.098C45.5922 62.098 46.5436 61.9512 47.4545 61.6576C50.2129 60.7686 54.5937 58.9864 58.7439 55.7245C59.493 55.1357 59.7747 54.1298 59.4476 53.2349C59.2573 52.7139 59.0287 52.0683 58.7804 51.3262Z" fill="white"/>
<path d="M34.0155 53.7629C32.6598 52.9574 31.4623 52.1251 30.4899 51.3262C30.2415 52.0684 30.013 52.714 29.8225 53.2349C29.4954 54.1298 29.7772 55.1357 30.5263 55.7245C31.3091 56.3397 32.1001 56.9022 32.8869 57.4161C33.2537 56.2798 33.6341 55.0557 34.0155 53.7629Z" fill="white"/>
</svg>
