<svg width="62" height="62" viewBox="0 0 62 62" fill="none" xmlns="http://www.w3.org/2000/svg">
<path d="M58.125 25.4201V52.3126C58.1205 53.8528 57.5067 55.3286 56.4176 56.4177C55.3285 57.5068 53.8527 58.1206 52.3125 58.1251H9.6875C8.14731 58.1206 6.67149 57.5068 5.58241 56.4177C4.49333 55.3286 3.8795 53.8528 3.875 52.3126V25.4201C3.87449 24.4277 4.12682 23.4516 4.60819 22.5838C5.08956 21.7159 5.78409 20.9851 6.62625 20.4601L12.6519 17.2632C12.9461 17.1017 13.2775 17.02 13.6132 17.0262C13.9488 17.0325 14.2769 17.1265 14.5649 17.2989C14.853 17.4713 15.0908 17.7161 15.2549 18.009C15.4189 18.3019 15.5034 18.6326 15.5 18.9682V30.1282L27.0669 36.367L31 38.4789L34.9331 36.367L46.5 30.1282V18.9682C46.4966 18.6326 46.5811 18.3019 46.7451 18.009C46.9092 17.7161 47.147 17.4713 47.4351 17.2989C47.7231 17.1265 48.0512 17.0325 48.3868 17.0262C48.7225 17.02 49.0539 17.1017 49.3481 17.2632L55.2575 20.402C56.1283 20.9194 56.8501 21.6537 57.3527 22.5331C57.8552 23.4126 58.1213 24.4072 58.125 25.4201Z" fill="#4294FF"/>
<path d="M58.125 25.4201V28.2876L31.9106 42.3926C31.6314 42.5452 31.3182 42.6252 31 42.6252C30.6818 42.6252 30.3686 42.5452 30.0894 42.3926L3.875 28.2876V25.4201C3.87449 24.4277 4.12682 23.4516 4.60819 22.5838C5.08956 21.7159 5.78409 20.9851 6.62625 20.4601L12.6519 17.2632C12.9461 17.1017 13.2775 17.02 13.6132 17.0262C13.9488 17.0325 14.2769 17.1265 14.5649 17.2989C14.853 17.4713 15.0908 17.7161 15.2549 18.009C15.4189 18.3019 15.5034 18.6326 15.5 18.9682V30.1282L31 38.4789L46.5 30.1282V18.9682C46.4966 18.6326 46.5811 18.3019 46.7451 18.009C46.9092 17.7161 47.147 17.4713 47.4351 17.2989C47.7231 17.1265 48.0512 17.0325 48.3868 17.0262C48.7225 17.02 49.0539 17.1017 49.3481 17.2632L55.2575 20.402C56.1283 20.9194 56.8501 21.6537 57.3527 22.5331C57.8552 23.4126 58.1213 24.4072 58.125 25.4201Z" fill="#376CFB"/>
<path d="M49.9681 58.1248H9.68752C8.14733 58.1203 6.67151 57.5065 5.58243 56.4174C4.49335 55.3284 3.87952 53.8525 3.87502 52.3123V25.4198C3.87256 24.5286 4.07584 23.6488 4.46902 22.849C4.86221 22.0492 5.43469 21.351 6.1419 20.8086C7.8469 33.4023 15.8294 54.8311 49.9681 58.1248Z" fill="#2965ED"/>
<path d="M58.125 51.3051V52.3126C58.1205 53.8528 57.5067 55.3286 56.4176 56.4177C55.3285 57.5068 53.8527 58.1206 52.3125 58.1251H9.6875C8.14731 58.1206 6.67149 57.5068 5.58241 56.4177C4.49333 55.3286 3.8795 53.8528 3.875 52.3126V51.3051L25.0325 36.4833C25.3288 36.2804 25.675 36.1624 26.0335 36.1419C26.392 36.1214 26.7494 36.1992 27.0669 36.367L31 38.4789L34.9331 36.367C35.2506 36.1992 35.608 36.1214 35.9665 36.1419C36.325 36.1624 36.6712 36.2804 36.9675 36.4833L58.125 51.3051Z" fill="#376CFB"/>
<path d="M8.68002 30.8642L3.87502 28.2873V25.4198C3.87256 24.5286 4.07584 23.6488 4.46902 22.849C4.86221 22.0492 5.43469 21.351 6.1419 20.8086C6.60197 24.2462 7.45354 27.62 8.68002 30.8642Z" fill="#2045CE"/>
<path d="M49.9681 58.1249H9.6875C8.14731 58.1204 6.67149 57.5066 5.58241 56.4175C4.49333 55.3284 3.8795 53.8526 3.875 52.3124V51.3049L15.8681 42.9155C22.3394 50.278 32.8794 56.478 49.9681 58.1249Z" fill="#2045CE"/>
<path d="M48.4375 3.875H13.5625C13.0486 3.875 12.5558 4.07913 12.1925 4.44248C11.8291 4.80583 11.625 5.29864 11.625 5.8125V32.4471L30.0814 42.3923C30.3635 42.545 30.6792 42.625 31 42.625C31.3208 42.625 31.6365 42.545 31.9186 42.3923L50.375 32.4471V5.8125C50.375 5.29864 50.1709 4.80583 49.8075 4.44248C49.4442 4.07913 48.9514 3.875 48.4375 3.875Z" fill="#E6ECFF"/>
<path d="M37.7037 39.2731L31.9106 42.3925C31.6314 42.5451 31.3182 42.6251 31 42.6251C30.6818 42.6251 30.3686 42.5451 30.0894 42.3925L11.625 32.4531V5.8125C11.6265 5.2991 11.8311 4.80715 12.1941 4.44412C12.5571 4.08109 13.0491 3.87648 13.5625 3.875H20.5956C21.5063 14.9769 25.4975 30.2831 37.7037 39.2731Z" fill="#B7C6E2"/>
<path d="M40.6875 15.5H21.3125C20.7986 15.5 20.3058 15.2959 19.9425 14.9325C19.5791 14.5692 19.375 14.0764 19.375 13.5625C19.375 13.0486 19.5791 12.5558 19.9425 12.1925C20.3058 11.8291 20.7986 11.625 21.3125 11.625H40.6875C41.2014 11.625 41.6942 11.8291 42.0575 12.1925C42.4209 12.5558 42.625 13.0486 42.625 13.5625C42.625 14.0764 42.4209 14.5692 42.0575 14.9325C41.6942 15.2959 41.2014 15.5 40.6875 15.5Z" fill="#4294FF"/>
<path d="M40.6875 23.25H21.3125C20.7986 23.25 20.3058 23.0459 19.9425 22.6825C19.5791 22.3192 19.375 21.8264 19.375 21.3125C19.375 20.7986 19.5791 20.3058 19.9425 19.9425C20.3058 19.5791 20.7986 19.375 21.3125 19.375H40.6875C41.2014 19.375 41.6942 19.5791 42.0575 19.9425C42.4209 20.3058 42.625 20.7986 42.625 21.3125C42.625 21.8264 42.4209 22.3192 42.0575 22.6825C41.6942 23.0459 41.2014 23.25 40.6875 23.25Z" fill="#4294FF"/>
<path d="M40.6875 31H21.3125C20.7986 31 20.3058 30.7959 19.9425 30.4325C19.5791 30.0692 19.375 29.5764 19.375 29.0625C19.375 28.5486 19.5791 28.0558 19.9425 27.6925C20.3058 27.3291 20.7986 27.125 21.3125 27.125H40.6875C41.2014 27.125 41.6942 27.3291 42.0575 27.6925C42.4209 28.0558 42.625 28.5486 42.625 29.0625C42.625 29.5764 42.4209 30.0692 42.0575 30.4325C41.6942 30.7959 41.2014 31 40.6875 31Z" fill="#4294FF"/>
<path d="M22.5912 15.5H21.3125C20.7986 15.5 20.3058 15.2959 19.9425 14.9325C19.5791 14.5692 19.375 14.0764 19.375 13.5625C19.375 13.0486 19.5791 12.5558 19.9425 12.1925C20.3058 11.8291 20.7986 11.625 21.3125 11.625H21.6806C21.9325 12.9038 22.2425 14.2019 22.5912 15.5Z" fill="#2965ED"/>
<path d="M25.3038 23.25H21.3125C20.7986 23.25 20.3058 23.0459 19.9425 22.6825C19.5791 22.3192 19.375 21.8264 19.375 21.3125C19.375 20.7986 19.5791 20.3058 19.9425 19.9425C20.3058 19.5791 20.7986 19.375 21.3125 19.375H23.7925C24.2253 20.6932 24.7298 21.9868 25.3038 23.25Z" fill="#2965ED"/>
<path d="M29.6438 31H21.3125C20.7986 31 20.3058 30.7959 19.9425 30.4325C19.5791 30.0692 19.375 29.5764 19.375 29.0625C19.375 28.5486 19.5791 28.0558 19.9425 27.6925C20.3058 27.3291 20.7986 27.125 21.3125 27.125H27.2025C27.9471 28.459 28.762 29.7525 29.6438 31Z" fill="#2965ED"/>
</svg>
