<svg width="52" height="233" viewBox="0 0 52 233" fill="none" xmlns="http://www.w3.org/2000/svg">
<path d="M70 218.575L25.1678 232.679C15.9715 234.047 -1.90394 231.756 0.165238 211.652L0.165231 41.8935C-0.792722 32.7474 2.29189 13.1218 22.2939 7.78799C40.272 1.61812 52.3938 -7.40198 67.3698 10.6734L70 12.9166L70 31.6362L70 218.575Z" fill="#ED3833"/>
<path d="M39.3418 190.088L36.5504 190.095L36.5321 181.951L39.3235 181.945L39.3418 190.088ZM25.9847 190.118L23.1933 190.125L23.175 181.981L25.9664 181.975L25.9847 190.118ZM32.1442 190.105L29.399 190.111L29.3817 182.429L32.1269 182.422L32.1442 190.105ZM23.1981 192.247L23.1909 189.063L39.3395 189.027L39.3466 192.211L23.1981 192.247ZM23.1419 167.241L23.1347 164.058L40.0907 164.02L29.297 175.533L39.3091 175.51L39.3162 178.694L22.3603 178.732L33.154 167.219L23.1419 167.241ZM31.7465 156.862L31.7387 153.378L39.2475 148.102L39.2562 152L31.7465 156.862ZM23.1268 160.549L23.1194 157.25L39.268 157.214L39.2754 160.513L23.1268 160.549ZM25.9368 158.536L23.1223 158.542L23.1146 155.128C23.1118 153.851 23.3247 152.767 23.7533 151.874C24.1819 150.981 24.7802 150.295 25.5481 149.817C26.316 149.338 27.2151 149.098 28.2456 149.095C29.2606 149.093 30.1609 149.329 30.9463 149.804C31.7163 150.279 32.3177 150.962 32.7503 151.854C33.183 152.745 33.4007 153.828 33.4036 155.105L33.4112 158.519L30.7813 158.525L30.7741 155.318C30.7728 154.734 30.6794 154.234 30.4939 153.819C30.293 153.389 30.0155 153.059 29.6612 152.829C29.2916 152.6 28.853 152.485 28.3455 152.486C27.838 152.487 27.4076 152.604 27.0544 152.835C26.6858 153.067 26.4097 153.398 26.2261 153.829C26.0271 154.245 25.9283 154.745 25.9296 155.329L25.9368 158.536ZM31.1632 143.665C32.1936 143.662 33.1082 143.445 33.907 143.013C34.7058 142.58 35.335 141.987 35.7947 141.232C36.2544 140.477 36.4831 139.6 36.4809 138.601C36.4786 137.601 36.2459 136.725 35.7829 135.972C35.3198 135.22 34.6879 134.637 33.8872 134.223C33.0865 133.794 32.171 133.581 31.1405 133.583C30.1101 133.586 29.1955 133.795 28.3967 134.212C27.5979 134.63 26.9686 135.215 26.5089 135.97C26.0492 136.725 25.8205 137.609 25.8228 138.625C25.8251 139.624 26.0577 140.5 26.5208 141.253C26.9839 142.005 27.6158 142.596 28.4165 143.025C29.2172 143.454 30.1328 143.667 31.1632 143.665ZM31.171 147.148C29.9407 147.151 28.8175 146.938 27.8014 146.51C26.77 146.082 25.8767 145.484 25.1214 144.716C24.366 143.949 23.7873 143.051 23.3851 142.021C22.9675 140.976 22.7573 139.846 22.7546 138.631C22.7518 137.401 22.9569 136.27 23.3699 135.239C23.7674 134.207 24.3421 133.306 25.094 132.536C25.8458 131.75 26.7365 131.148 27.766 130.73C28.7801 130.297 29.9023 130.08 31.1327 130.077C32.3476 130.074 33.4785 130.287 34.5253 130.715C35.5567 131.128 36.4577 131.718 37.2284 132.485C37.9991 133.237 38.6009 134.136 39.0339 135.181C39.4514 136.21 39.6616 137.348 39.6644 138.593C39.6672 139.839 39.4622 140.985 39.0493 142.032C38.621 143.064 38.0232 143.965 37.2559 144.735C36.4887 145.506 35.5903 146.1 34.5608 146.518C33.5159 146.935 32.386 147.145 31.171 147.148ZM23.0527 127.545L23.0452 124.246L36.3101 124.216L36.2956 117.78L39.1793 117.773L39.2012 127.509L23.0527 127.545ZM23.0265 115.92L23.0191 112.621L36.284 112.591L36.2695 106.155L39.1532 106.148L39.1751 115.884L23.0265 115.92ZM22.959 85.8904L22.9519 82.7068L39.9078 82.6687L29.1141 94.1816L39.1262 94.1591L39.1334 97.3426L22.1774 97.3808L32.9711 85.8679L22.959 85.8904ZM31.0125 76.6195C32.0429 76.6172 32.9575 76.3998 33.7563 75.9674C34.5551 75.5349 35.1843 74.9414 35.644 74.1868C36.1037 73.4321 36.3324 72.555 36.3302 71.5553C36.3279 70.5556 36.0953 69.6795 35.6322 68.927C35.1691 68.1744 34.5372 67.5914 33.7366 67.178C32.9359 66.7491 32.0203 66.5359 30.9899 66.5382C29.9594 66.5405 29.0448 66.7502 28.246 67.1672C27.4472 67.5843 26.818 68.1701 26.3583 68.9247C25.8986 69.6794 25.6699 70.5642 25.6721 71.5793C25.6744 72.5789 25.9071 73.4551 26.3701 74.2076C26.8332 74.9602 27.4651 75.5509 28.2658 75.9797C29.0665 76.4085 29.9821 76.6218 31.0125 76.6195ZM31.0203 80.1029C29.79 80.1057 28.6668 79.8929 27.6508 79.4646C26.6194 79.0363 25.726 78.4385 24.9707 77.6712C24.2154 76.9039 23.6366 76.0055 23.2344 74.976C22.8168 73.9311 22.6067 72.8012 22.6039 71.5862C22.6012 70.3558 22.8062 69.2249 23.2192 68.1936C23.6167 67.1622 24.1914 66.2612 24.9433 65.4906C25.6951 64.7045 26.5858 64.1027 27.6153 63.6852C28.6294 63.2522 29.7516 63.0344 30.982 63.0316C32.197 63.0289 33.3278 63.2417 34.3746 63.67C35.406 64.0829 36.307 64.673 37.0777 65.4402C37.8484 66.1921 38.4502 67.0905 38.8832 68.1353C39.3008 69.1648 39.5109 70.3024 39.5137 71.5482C39.5165 72.7939 39.3115 73.9402 38.8986 74.9869C38.4703 76.0183 37.8725 76.9193 37.1053 77.69C36.338 78.4608 35.4396 79.0549 34.4101 79.4725C33.3653 79.8901 32.2353 80.1002 31.0203 80.1029ZM32.9054 46.3649L22.8625 42.927L22.8538 39.0514L39.9173 45.8185L29.3168 50.9176L39.9402 55.9921L22.9072 62.8128L22.8985 58.9371L32.9257 55.4081L22.073 50.9339L32.9054 46.3649Z" fill="white"/>
</svg>
