<svg width="27" height="25" viewBox="0 0 27 25" fill="none" xmlns="http://www.w3.org/2000/svg">
<path d="M22.41 5.2101H21.6V1.9701C21.6 1.07667 20.8732 0.350098 19.98 0.350098H7.02004C6.12688 0.350098 5.40004 1.07667 5.40004 1.9701V5.2101H4.59004C2.35687 5.2101 0.540039 7.02693 0.540039 9.2601V17.3601C0.540039 18.7001 1.63003 19.7901 2.97004 19.7901H5.40004V23.0301C5.40004 23.9235 6.12688 24.6501 7.02004 24.6501H19.98C20.8732 24.6501 21.6 23.9235 21.6 23.0301V19.7901H24.03C25.3701 19.7901 26.46 18.7001 26.46 17.3601V9.2601C26.46 7.02693 24.6432 5.2101 22.41 5.2101ZM7.02004 1.9701H19.98V5.2101H7.02004V1.9701ZM7.02004 23.0301V14.9301H19.98V23.0301H7.02004ZM24.84 17.3601C24.84 17.8067 24.4769 18.1701 24.03 18.1701H21.6V14.9301H22.41C22.8577 14.9301 23.22 14.5675 23.22 14.1201C23.22 13.6727 22.8577 13.3101 22.41 13.3101H4.59004C4.14238 13.3101 3.78004 13.6727 3.78004 14.1201C3.78004 14.5675 4.14238 14.9301 4.59004 14.9301H5.40004V18.1701H2.97004C2.52319 18.1701 2.16004 17.8067 2.16004 17.3601V9.2601C2.16004 7.92009 3.25003 6.8301 4.59004 6.8301H22.41C23.75 6.8301 24.84 7.92009 24.84 9.2601V17.3601ZM17.55 17.3601C17.55 17.8075 17.1877 18.1701 16.74 18.1701H10.26C9.81238 18.1701 9.45004 17.8075 9.45004 17.3601C9.45004 16.9127 9.81238 16.5501 10.26 16.5501H16.74C17.1877 16.5501 17.55 16.9127 17.55 17.3601ZM17.55 20.6001C17.55 21.0475 17.1877 21.4101 16.74 21.4101H10.26C9.81238 21.4101 9.45004 21.0475 9.45004 20.6001C9.45004 20.1527 9.81238 19.7901 10.26 19.7901H16.74C17.1877 19.7901 17.55 20.1527 17.55 20.6001ZM23.22 9.2601C23.22 9.70749 22.8577 10.0701 22.41 10.0701H20.79C20.3424 10.0701 19.98 9.70749 19.98 9.2601C19.98 8.81271 20.3424 8.4501 20.79 8.4501H22.41C22.8577 8.4501 23.22 8.81271 23.22 9.2601Z" fill="#0D5EF4"/>
</svg>
