<svg width="53" height="53" viewBox="0 0 53 53" fill="none" xmlns="http://www.w3.org/2000/svg">
<path d="M16.5625 37.5417C15.953 37.5417 15.4583 37.047 15.4583 36.4375V11.0417C15.4583 8.60588 17.4392 6.625 19.875 6.625C22.3108 6.625 24.2916 8.60588 24.2916 11.0417V34.2292C24.2916 34.8387 23.797 35.3333 23.1875 35.3333C22.578 35.3333 22.0833 34.8387 22.0833 34.2292V11.0417C22.0833 9.82267 21.094 8.83333 19.875 8.83333C18.656 8.83333 17.6666 9.82267 17.6666 11.0417V36.4375C17.6666 37.047 17.172 37.5417 16.5625 37.5417Z" fill="white"/>
<path d="M29.8125 35.3333C29.203 35.3333 28.7083 34.8387 28.7083 34.2292V24.2917C28.7083 23.0727 27.719 22.0833 26.5 22.0833C25.281 22.0833 24.2916 23.0727 24.2916 24.2917C24.2916 24.9012 23.797 25.3958 23.1875 25.3958C22.578 25.3958 22.0833 24.9012 22.0833 24.2917C22.0833 21.8559 24.0642 19.875 26.5 19.875C28.9358 19.875 30.9166 21.8559 30.9166 24.2917V34.2292C30.9166 34.8387 30.422 35.3333 29.8125 35.3333Z" fill="white"/>
<path d="M36.4375 35.334C35.828 35.334 35.3334 34.8393 35.3334 34.2298V26.5007C35.3334 25.2817 34.344 24.2923 33.125 24.2923C31.906 24.2923 30.9167 25.2817 30.9167 26.5007C30.9167 27.1102 30.422 27.6048 29.8125 27.6048C29.203 27.6048 28.7084 27.1102 28.7084 26.5007C28.7084 24.0649 30.6892 22.084 33.125 22.084C35.5608 22.084 37.5417 24.0649 37.5417 26.5007V34.2298C37.5417 34.8393 37.047 35.334 36.4375 35.334Z" fill="white"/>
<path d="M34.2292 52.9994H21.4496C17.7329 52.9994 13.8993 51.3806 11.1896 48.6688C8.19955 45.6765 6.62059 41.4078 6.62722 36.3286C6.62943 32.1284 10.1429 28.7077 14.4558 28.7077H16.5625C17.172 28.7077 17.6667 29.2023 17.6667 29.8118C17.6667 30.4213 17.172 30.916 16.5625 30.916H14.4558C11.3597 30.916 8.83776 33.3474 8.83555 36.3308C8.83113 40.8756 10.1495 44.4995 12.7509 47.1075C15.465 49.8238 19.0226 50.791 21.4496 50.791H34.2292C38.4913 50.791 41.9583 47.3239 41.9583 43.0618V28.7077C41.9583 27.4887 40.969 26.4993 39.75 26.4993C38.531 26.4993 37.5417 27.4887 37.5417 28.7077C37.5417 29.3172 37.047 29.8118 36.4375 29.8118C35.828 29.8118 35.3333 29.3172 35.3333 28.7077C35.3333 26.2719 37.3142 24.291 39.75 24.291C42.1858 24.291 44.1667 26.2719 44.1667 28.7077V43.0618C44.1667 48.5407 39.7081 52.9994 34.2292 52.9994Z" fill="white"/>
<path d="M27.6041 18.3733C27.359 18.3733 27.1095 18.2916 26.9063 18.1238C26.4337 17.7373 26.3653 17.0439 26.7517 16.5713C28.0304 15.0034 28.7083 13.091 28.7083 11.0417C28.7083 6.17008 24.7466 2.20833 19.875 2.20833C15.0034 2.20833 11.0416 6.17008 11.0416 11.0417C11.0416 13.091 11.7196 15.0034 13.0004 16.5713C13.3869 17.0439 13.3184 17.7373 12.8459 18.1238C12.3755 18.5125 11.6799 18.4418 11.2934 17.9692C9.68352 16.0016 8.83331 13.6055 8.83331 11.0417C8.83331 4.95329 13.7866 0 19.875 0C25.9634 0 30.9166 4.95329 30.9166 11.0417C30.9166 13.6055 30.0664 16.0016 28.4588 17.9692C28.2401 18.2364 27.9244 18.3733 27.6041 18.3733Z" fill="white"/>
</svg>
