<svg width="50" height="63" viewBox="0 0 50 63" fill="none" xmlns="http://www.w3.org/2000/svg">
<rect width="50" height="63" rx="10" fill="#EFF1F2"/>
<rect width="50" height="17" rx="8.5" transform="matrix(1 0 0 -1 0 17)" fill="#0D5EF4"/>
<path d="M14.8828 26.4688H16.2773L18.6094 32.8906L20.9355 26.4688H22.3359L19.166 35H18.0469L14.8828 26.4688ZM14.1797 26.4688H15.5449L15.791 32.3691V35H14.1797V26.4688ZM21.668 26.4688H23.0391V35H21.4277V32.3691L21.668 26.4688ZM28.0547 33.6523V30.7285C28.0547 30.5137 28.0176 30.3281 27.9434 30.1719C27.8691 30.0156 27.7559 29.8945 27.6035 29.8086C27.4512 29.7227 27.2578 29.6797 27.0234 29.6797C26.8164 29.6797 26.6348 29.7148 26.4785 29.7852C26.3262 29.8555 26.209 29.9551 26.127 30.084C26.0449 30.209 26.0039 30.3535 26.0039 30.5176H24.4512C24.4512 30.2559 24.5137 30.0078 24.6387 29.7734C24.7637 29.5352 24.9414 29.3242 25.1719 29.1406C25.4062 28.9531 25.6855 28.8066 26.0098 28.7012C26.3379 28.5957 26.7051 28.543 27.1113 28.543C27.5918 28.543 28.0195 28.625 28.3945 28.7891C28.7734 28.9492 29.0703 29.1914 29.2852 29.5156C29.5039 29.8398 29.6133 30.248 29.6133 30.7402V33.5059C29.6133 33.8223 29.6328 34.0938 29.6719 34.3203C29.7148 34.543 29.7773 34.7363 29.8594 34.9004V35H28.2832C28.209 34.8398 28.1523 34.6367 28.1133 34.3906C28.0742 34.1406 28.0547 33.8945 28.0547 33.6523ZM28.2715 31.1387L28.2832 32.0586H27.3047C27.0625 32.0586 26.8496 32.084 26.666 32.1348C26.4824 32.1816 26.332 32.252 26.2148 32.3457C26.0977 32.4355 26.0098 32.5449 25.9512 32.6738C25.8926 32.7988 25.8633 32.9414 25.8633 33.1016C25.8633 33.2578 25.8984 33.3984 25.9688 33.5234C26.043 33.6484 26.1484 33.748 26.2852 33.8223C26.4258 33.8926 26.5898 33.9277 26.7773 33.9277C27.0508 33.9277 27.2891 33.873 27.4922 33.7637C27.6953 33.6504 27.8535 33.5137 27.9668 33.3535C28.0801 33.1934 28.1406 33.041 28.1484 32.8965L28.5938 33.5645C28.5391 33.7246 28.457 33.8945 28.3477 34.0742C28.2383 34.2539 28.0977 34.4219 27.9258 34.5781C27.7539 34.7344 27.5469 34.8633 27.3047 34.9648C27.0625 35.0664 26.7812 35.1172 26.4609 35.1172C26.0508 35.1172 25.6836 35.0352 25.3594 34.8711C25.0352 34.707 24.7793 34.4824 24.5918 34.1973C24.4043 33.9121 24.3105 33.5879 24.3105 33.2246C24.3105 32.8887 24.373 32.5918 24.498 32.334C24.623 32.0762 24.8086 31.8594 25.0547 31.6836C25.3008 31.5039 25.6055 31.3691 25.9688 31.2793C26.3359 31.1855 26.7559 31.1387 27.2285 31.1387H28.2715ZM32.5547 29.9551V35H31.0078V28.6602H32.4727L32.5547 29.9551ZM34.4824 28.6191L34.459 30.0605C34.373 30.0449 34.2754 30.0332 34.166 30.0254C34.0605 30.0176 33.9609 30.0137 33.8672 30.0137C33.6289 30.0137 33.4199 30.0469 33.2402 30.1133C33.0605 30.1758 32.9102 30.2676 32.7891 30.3887C32.6719 30.5098 32.582 30.6582 32.5195 30.834C32.457 31.0059 32.4219 31.2012 32.4141 31.4199L32.0801 31.3789C32.0801 30.9766 32.1211 30.6035 32.2031 30.2598C32.2852 29.916 32.4043 29.6152 32.5605 29.3574C32.7168 29.0996 32.9121 28.9004 33.1465 28.7598C33.3848 28.6152 33.6582 28.543 33.9668 28.543C34.0527 28.543 34.1445 28.5508 34.2422 28.5664C34.3438 28.5781 34.4238 28.5957 34.4824 28.6191ZM16.6816 48.7812V50H10.9043V48.957L13.6758 45.9629C13.9648 45.6348 14.1934 45.3496 14.3613 45.1074C14.5293 44.8652 14.6484 44.6465 14.7188 44.4512C14.793 44.252 14.8301 44.0625 14.8301 43.8828C14.8301 43.6211 14.7832 43.3926 14.6895 43.1973C14.5957 42.998 14.459 42.8438 14.2793 42.7344C14.1035 42.625 13.8867 42.5703 13.6289 42.5703C13.3438 42.5703 13.0996 42.6367 12.8965 42.7695C12.6973 42.8984 12.5449 43.0781 12.4395 43.3086C12.3379 43.5391 12.2871 43.8027 12.2871 44.0996H10.7344C10.7344 43.5957 10.8516 43.1367 11.0859 42.7227C11.3203 42.3047 11.6562 41.9707 12.0938 41.7207C12.5312 41.4707 13.0508 41.3457 13.6523 41.3457C14.2383 41.3457 14.7344 41.4434 15.1406 41.6387C15.5469 41.8301 15.8555 42.1035 16.0664 42.459C16.2773 42.8145 16.3828 43.2383 16.3828 43.7305C16.3828 44.0039 16.3379 44.2734 16.248 44.5391C16.1582 44.8047 16.0312 45.0684 15.8672 45.3301C15.707 45.5879 15.5156 45.8496 15.293 46.1152C15.0703 46.3809 14.8223 46.6523 14.5488 46.9297L12.8848 48.7812H16.6816ZM23.4082 45.002V46.4375C23.4082 47.0938 23.3418 47.6543 23.209 48.1191C23.0762 48.584 22.8848 48.9648 22.6348 49.2617C22.3848 49.5547 22.0859 49.7715 21.7383 49.9121C21.3906 50.0488 21.0039 50.1172 20.5781 50.1172C20.2383 50.1172 19.9219 50.0742 19.6289 49.9883C19.3359 49.8984 19.0723 49.7617 18.8379 49.5781C18.6074 49.3906 18.4082 49.1523 18.2402 48.8633C18.0762 48.5742 17.9492 48.2285 17.8594 47.8262C17.7734 47.4238 17.7305 46.9609 17.7305 46.4375V45.002C17.7305 44.3457 17.7969 43.7871 17.9297 43.3262C18.0664 42.8652 18.2598 42.4883 18.5098 42.1953C18.7598 41.9023 19.0586 41.6895 19.4062 41.5566C19.7539 41.4199 20.1406 41.3516 20.5664 41.3516C20.9102 41.3516 21.2266 41.3945 21.5156 41.4805C21.8086 41.5664 22.0703 41.7012 22.3008 41.8848C22.5352 42.0645 22.7344 42.2988 22.8984 42.5879C23.0625 42.873 23.1875 43.2168 23.2734 43.6191C23.3633 44.0176 23.4082 44.4785 23.4082 45.002ZM21.8613 46.6484V44.7852C21.8613 44.457 21.8418 44.1719 21.8027 43.9297C21.7676 43.6836 21.7148 43.4746 21.6445 43.3027C21.5742 43.1309 21.4863 42.9922 21.3809 42.8867C21.2754 42.7773 21.1543 42.6973 21.0176 42.6465C20.8809 42.5957 20.7305 42.5703 20.5664 42.5703C20.3633 42.5703 20.1816 42.6113 20.0215 42.6934C19.8613 42.7715 19.7266 42.8965 19.6172 43.0684C19.5078 43.2402 19.4238 43.4688 19.3652 43.7539C19.3105 44.0352 19.2832 44.3789 19.2832 44.7852V46.6484C19.2832 46.9766 19.3008 47.2637 19.3359 47.5098C19.375 47.7559 19.4297 47.9668 19.5 48.1426C19.5742 48.3184 19.6621 48.4629 19.7637 48.5762C19.8691 48.6855 19.9902 48.7676 20.127 48.8223C20.2637 48.873 20.4141 48.8984 20.5781 48.8984C20.7852 48.8984 20.9668 48.8574 21.123 48.7754C21.2832 48.6934 21.418 48.5645 21.5273 48.3887C21.6367 48.209 21.7188 47.9766 21.7734 47.6914C21.832 47.4023 21.8613 47.0547 21.8613 46.6484ZM30.3926 48.7812V50H24.6152V48.957L27.3867 45.9629C27.6758 45.6348 27.9043 45.3496 28.0723 45.1074C28.2402 44.8652 28.3594 44.6465 28.4297 44.4512C28.5039 44.252 28.541 44.0625 28.541 43.8828C28.541 43.6211 28.4941 43.3926 28.4004 43.1973C28.3066 42.998 28.1699 42.8438 27.9902 42.7344C27.8145 42.625 27.5977 42.5703 27.3398 42.5703C27.0547 42.5703 26.8105 42.6367 26.6074 42.7695C26.4082 42.8984 26.2559 43.0781 26.1504 43.3086C26.0488 43.5391 25.998 43.8027 25.998 44.0996H24.4453C24.4453 43.5957 24.5625 43.1367 24.7969 42.7227C25.0312 42.3047 25.3672 41.9707 25.8047 41.7207C26.2422 41.4707 26.7617 41.3457 27.3633 41.3457C27.9492 41.3457 28.4453 41.4434 28.8516 41.6387C29.2578 41.8301 29.5664 42.1035 29.7773 42.459C29.9883 42.8145 30.0938 43.2383 30.0938 43.7305C30.0938 44.0039 30.0488 44.2734 29.959 44.5391C29.8691 44.8047 29.7422 45.0684 29.5781 45.3301C29.418 45.5879 29.2266 45.8496 29.0039 46.1152C28.7812 46.3809 28.5332 46.6523 28.2598 46.9297L26.5957 48.7812H30.3926ZM33.0059 46.0742L31.7695 45.7754L32.2441 41.4688H36.9375V42.752H33.5273L33.3047 44.7441C33.4258 44.6699 33.6016 44.5957 33.832 44.5215C34.0664 44.4434 34.3301 44.4043 34.623 44.4043C35.0293 44.4043 35.3926 44.4707 35.7129 44.6035C36.0332 44.7324 36.3047 44.9199 36.5273 45.166C36.7539 45.4121 36.9238 45.7129 37.0371 46.0684C37.1543 46.4199 37.2129 46.8184 37.2129 47.2637C37.2129 47.6543 37.1543 48.0215 37.0371 48.3652C36.9238 48.7051 36.75 49.0078 36.5156 49.2734C36.2812 49.5352 35.9863 49.7422 35.6309 49.8945C35.2754 50.043 34.8574 50.1172 34.377 50.1172C34.0137 50.1172 33.6641 50.0645 33.3281 49.959C32.9961 49.8496 32.6973 49.6914 32.4316 49.4844C32.166 49.2734 31.9531 49.0156 31.793 48.7109C31.6367 48.4062 31.5508 48.0566 31.5352 47.6621H33.0645C33.0918 47.9238 33.1621 48.1465 33.2754 48.3301C33.3887 48.5137 33.5371 48.6543 33.7207 48.752C33.9082 48.8496 34.125 48.8984 34.3711 48.8984C34.5938 48.8984 34.7852 48.8574 34.9453 48.7754C35.1094 48.6895 35.2441 48.5703 35.3496 48.418C35.4551 48.2656 35.5332 48.0859 35.584 47.8789C35.6348 47.6719 35.6602 47.4453 35.6602 47.1992C35.6602 46.9609 35.6309 46.7441 35.5723 46.5488C35.5137 46.3496 35.4238 46.1777 35.3027 46.0332C35.1816 45.8887 35.0293 45.7773 34.8457 45.6992C34.666 45.6211 34.4551 45.582 34.2129 45.582C33.8887 45.582 33.6387 45.6309 33.4629 45.7285C33.291 45.8262 33.1387 45.9414 33.0059 46.0742Z" fill="black"/>
<path d="M23.5371 12.7812V14H17.7598V12.957L20.5312 9.96289C20.8203 9.63477 21.0488 9.34961 21.2168 9.10742C21.3848 8.86523 21.5039 8.64648 21.5742 8.45117C21.6484 8.25195 21.6855 8.0625 21.6855 7.88281C21.6855 7.62109 21.6387 7.39258 21.5449 7.19727C21.4512 6.99805 21.3145 6.84375 21.1348 6.73438C20.959 6.625 20.7422 6.57031 20.4844 6.57031C20.1992 6.57031 19.9551 6.63672 19.752 6.76953C19.5527 6.89844 19.4004 7.07812 19.2949 7.30859C19.1934 7.53906 19.1426 7.80273 19.1426 8.09961H17.5898C17.5898 7.5957 17.707 7.13672 17.9414 6.72266C18.1758 6.30469 18.5117 5.9707 18.9492 5.7207C19.3867 5.4707 19.9062 5.3457 20.5078 5.3457C21.0938 5.3457 21.5898 5.44336 21.9961 5.63867C22.4023 5.83008 22.7109 6.10352 22.9219 6.45898C23.1328 6.81445 23.2383 7.23828 23.2383 7.73047C23.2383 8.00391 23.1934 8.27344 23.1035 8.53906C23.0137 8.80469 22.8867 9.06836 22.7227 9.33008C22.5625 9.58789 22.3711 9.84961 22.1484 10.1152C21.9258 10.3809 21.6777 10.6523 21.4043 10.9297L19.7402 12.7812H23.5371ZM26.3086 9.04883H27.1816C27.4902 9.04883 27.7441 8.99609 27.9434 8.89062C28.1465 8.78125 28.2969 8.63281 28.3945 8.44531C28.4961 8.25391 28.5469 8.0332 28.5469 7.7832C28.5469 7.53711 28.502 7.32422 28.4121 7.14453C28.3223 6.96094 28.1855 6.82031 28.002 6.72266C27.8223 6.62109 27.5918 6.57031 27.3105 6.57031C27.084 6.57031 26.875 6.61523 26.6836 6.70508C26.4961 6.79492 26.3457 6.92383 26.2324 7.0918C26.123 7.25586 26.0684 7.45312 26.0684 7.68359H24.5156C24.5156 7.22266 24.6367 6.81836 24.8789 6.4707C25.125 6.11914 25.457 5.84375 25.875 5.64453C26.293 5.44531 26.7598 5.3457 27.2754 5.3457C27.8379 5.3457 28.3301 5.43945 28.752 5.62695C29.1777 5.81055 29.5078 6.08203 29.7422 6.44141C29.9805 6.80078 30.0996 7.24609 30.0996 7.77734C30.0996 8.03125 30.0391 8.28516 29.918 8.53906C29.8008 8.78906 29.627 9.01562 29.3965 9.21875C29.1699 9.41797 28.8906 9.58008 28.5586 9.70508C28.2305 9.82617 27.8535 9.88672 27.4277 9.88672H26.3086V9.04883ZM26.3086 10.2441V9.41797H27.4277C27.9082 9.41797 28.3242 9.47461 28.6758 9.58789C29.0312 9.69727 29.3242 9.85352 29.5547 10.0566C29.7852 10.2559 29.9551 10.4883 30.0645 10.7539C30.1777 11.0195 30.2344 11.3047 30.2344 11.6094C30.2344 12.0078 30.1602 12.3633 30.0117 12.6758C29.8633 12.9844 29.6543 13.2461 29.3848 13.4609C29.1191 13.6758 28.8066 13.8398 28.4473 13.9531C28.0879 14.0625 27.6992 14.1172 27.2812 14.1172C26.918 14.1172 26.5645 14.0684 26.2207 13.9707C25.8809 13.8691 25.5742 13.7188 25.3008 13.5195C25.0273 13.3164 24.8105 13.0625 24.6504 12.7578C24.4902 12.4492 24.4102 12.0918 24.4102 11.6855H25.9629C25.9629 11.9199 26.0195 12.1289 26.1328 12.3125C26.25 12.4961 26.4102 12.6406 26.6133 12.7461C26.8203 12.8477 27.0527 12.8984 27.3105 12.8984C27.5957 12.8984 27.8398 12.8477 28.043 12.7461C28.25 12.6406 28.4082 12.4922 28.5176 12.3008C28.627 12.1055 28.6816 11.873 28.6816 11.6035C28.6816 11.2832 28.6211 11.0234 28.5 10.8242C28.3789 10.625 28.2051 10.4785 27.9785 10.3848C27.7559 10.291 27.4902 10.2441 27.1816 10.2441H26.3086Z" fill="white"/>
</svg>
