<svg width="125" height="71" viewBox="0 0 125 71" fill="none" xmlns="http://www.w3.org/2000/svg">
<g opacity="0.07">
<path d="M30.6836 43.1156C32.033 49.0651 34.9534 54.6873 39.4377 59.2622C52.005 72.0922 72.0945 71.7794 84.3019 58.564C84.7448 58.0839 85.1669 57.5966 85.5752 57.102" stroke="#2D1B23" stroke-opacity="0.5" stroke-width="3.8727" stroke-miterlimit="10" stroke-linecap="round" stroke-linejoin="round"/>
<path d="M91.4299 46.5267C95.4575 34.6132 92.8278 20.8013 83.6307 11.4188C71.0635 -1.40388 50.9809 -1.09841 38.7735 12.1171C33.5418 17.7829 30.6076 24.8961 29.9502 32.1839" stroke="#2D1B23" stroke-opacity="0.5" stroke-width="3.8727" stroke-miterlimit="10" stroke-linecap="round" stroke-linejoin="round"/>
<path d="M35.466 16.3574C33.6321 19.1285 32.248 22.1323 31.3069 25.2453C25.6669 25.0416 22.1514 25.609 21.8607 27.0272C21.5631 28.4601 24.6011 30.5329 29.909 32.8386C30.7602 33.2095 31.6667 33.5877 32.6356 33.9659C39.7773 36.7807 49.8878 39.8209 61.2371 42.4101C69.9151 44.3885 78.0326 45.814 84.7729 46.6286C87.0912 46.905 89.2227 47.1086 91.1811 47.2396C98.2744 47.7123 102.8 47.2105 103.132 45.5958C103.465 43.9884 99.6169 41.581 93.0773 38.9481C93.4163 35.6678 93.2918 32.344 92.7036 29.1001C111.769 36.0751 124.135 44.2357 122.917 50.1125C121.686 56.0547 106.904 58.0621 86.4615 55.982C84.8144 55.8147 83.1397 55.6256 81.4235 55.4001C74.5101 54.5128 67.0778 53.1963 59.3755 51.4362C49.3757 49.1524 40.0818 46.3886 31.9989 43.4138C31.5491 43.2466 31.1062 43.0793 30.6633 42.912C12.5322 36.0751 0.899213 28.22 2.08258 22.5106C3.24519 16.8665 16.6151 14.7718 35.466 16.3574Z" stroke="#2D1B23" stroke-opacity="0.5" stroke-width="3.8727" stroke-miterlimit="10" stroke-linecap="round" stroke-linejoin="round"/>
</g>
</svg>
