<svg width="50" height="32" viewBox="0 0 50 32" fill="none" xmlns="http://www.w3.org/2000/svg">
<rect width="50" height="32" rx="10" fill="#EFF1F2"/>
<g clip-path="url(#clip0_1_2568)">
<path d="M39.776 15.4138C39.5083 15.1151 33.0673 8.08984 25 8.08984C16.9327 8.08984 10.4919 15.1151 10.224 15.4138C9.92532 15.7476 9.92532 16.2524 10.224 16.5862C10.4919 16.8849 16.9328 23.9102 25 23.9102C33.0672 23.9102 39.5082 16.8849 39.776 16.5862C40.0747 16.2524 40.0747 15.7476 39.776 15.4138ZM25 22.1523C21.608 22.1523 18.8477 19.3921 18.8477 16C18.8477 12.6079 21.608 9.84766 25 9.84766C28.3921 9.84766 31.1524 12.6079 31.1524 16C31.1524 19.3921 28.3921 22.1523 25 22.1523Z" fill="#464646"/>
<path d="M25.8789 14.2422C25.8789 13.358 26.3178 12.5802 26.9856 12.1018C26.3864 11.795 25.7181 11.6055 25 11.6055C22.577 11.6055 20.6055 13.577 20.6055 16C20.6055 18.423 22.577 20.3945 25 20.3945C27.1694 20.3945 28.9649 18.8105 29.3196 16.7407C27.5498 17.3106 25.8789 15.972 25.8789 14.2422Z" fill="#464646"/>
</g>
<defs>
<clipPath id="clip0_1_2568">
<rect width="30" height="30" fill="white" transform="translate(10 1)"/>
</clipPath>
</defs>
</svg>
