<svg width="80" height="80" viewBox="0 0 80 80" fill="none" xmlns="http://www.w3.org/2000/svg">
<g clip-path="url(#clip0_1_2501)">
<path d="M78.4 61.3334H76.8V22.1334C76.8 19.8223 76.0444 17.9112 74.5333 16.4001C73.0222 14.889 71.2 14.1334 69.0667 14.1334H64.2667V10.4001C64.2667 8.62228 63.6889 7.15562 62.5333 6.00006C61.3778 4.84451 60 4.26673 58.4 4.26673H38.6667C36.8889 4.26673 35.4222 4.84451 34.2667 6.00006C33.1111 7.15562 32.5333 8.62228 32.5333 10.4001V14.1334H10.9333C8.8 14.1334 6.97778 14.889 5.46667 16.4001C3.95556 17.9112 3.2 19.8223 3.2 22.1334V61.3334H1.6C1.06667 61.3334 0.666667 61.5112 0.4 61.8667C0.133333 62.2223 0 62.5778 0 62.9334C0 66.489 1.24444 69.5112 3.73333 72.0001C6.22222 74.489 9.24444 75.7334 12.8 75.7334H33.0667C33.4222 75.7334 33.7333 75.6001 34 75.3334C34.2667 75.0667 34.4 74.7112 34.4 74.2667C34.4 73.8223 34.2667 73.4223 34 73.0667C33.7333 72.7112 33.4222 72.5334 33.0667 72.5334H12.8C10.4889 72.5334 8.4 71.7778 6.53333 70.2667C4.66667 68.7556 3.55556 66.8445 3.2 64.5334H76.8C76.4445 66.8445 75.3333 68.7556 73.4667 70.2667C71.6 71.7778 69.5111 72.5334 67.2 72.5334H46.9333C46.5778 72.5334 46.2667 72.7112 46 73.0667C45.7333 73.4223 45.6 73.8223 45.6 74.2667C45.6 74.7112 45.7333 75.0667 46 75.3334C46.2667 75.6001 46.5778 75.7334 46.9333 75.7334H67.2C70.7556 75.7334 73.7778 74.489 76.2667 72.0001C78.7556 69.5112 80 66.489 80 62.9334C80 62.5778 79.8667 62.2223 79.6 61.8667C79.3333 61.5112 78.9333 61.3334 78.4 61.3334ZM35.7333 10.4001C35.7333 9.51117 36 8.80006 36.5333 8.26673C37.0667 7.7334 37.7778 7.46673 38.6667 7.46673H58.4C59.1111 7.46673 59.7778 7.7334 60.4 8.26673C61.0222 8.80006 61.3333 9.51117 61.3333 10.4001V24.8001C61.3333 25.5112 61.0222 26.1778 60.4 26.8001C59.7778 27.4223 59.1111 27.7334 58.4 27.7334H43.7333C43.2 27.7334 42.8444 27.8223 42.6667 28.0001L40 30.4001V29.0667C40 28.7112 39.8667 28.4001 39.6 28.1334C39.3333 27.8667 38.8889 27.7334 38.2667 27.7334C37.6444 27.7334 37.0667 27.4223 36.5333 26.8001C36 26.1778 35.7333 25.5112 35.7333 24.8001V10.4001ZM6.13333 22.1334C6.13333 20.7112 6.62222 19.5556 7.6 18.6667C8.57778 17.7778 9.68889 17.3334 10.9333 17.3334H32.5333V20.5334H10.9333C10.5778 20.5334 10.2222 20.6667 9.86667 20.9334C9.51111 21.2001 9.33333 21.6001 9.33333 22.1334V61.3334H6.13333V22.1334ZM18.9333 61.3334V60.5334C18.9333 58.2223 19.7333 56.2223 21.3333 54.5334C22.9333 52.8445 24.8889 52.0001 27.2 52.0001H28V54.9334C28 55.4667 28.1333 55.8667 28.4 56.1334C28.6667 56.4001 29.0222 56.5334 29.4667 56.5334C29.9111 56.5334 30.2667 56.4001 30.5333 56.1334C30.8 55.8667 30.9333 55.4667 30.9333 54.9334V52.0001H31.7333C34.0444 52.0001 36 52.8445 37.6 54.5334C39.2 56.2223 40 58.2223 40 60.5334V61.3334H18.9333ZM33.6 44.8001C33.6 45.8667 33.2 46.8001 32.4 47.6001C31.6 48.4001 30.6222 48.8001 29.4667 48.8001C28.3111 48.8001 27.3333 48.4001 26.5333 47.6001C25.7333 46.8001 25.3333 45.8667 25.3333 44.8001V43.7334C25.3333 42.6667 25.7333 41.7334 26.5333 40.9334C27.3333 40.1334 28.3111 39.7334 29.4667 39.7334C30.6222 39.7334 31.6 40.1334 32.4 40.9334C33.2 41.7334 33.6 42.6667 33.6 43.7334V44.8001ZM43.2 61.3334V60.5334C43.2 57.8667 42.4444 55.5112 40.9333 53.4667C39.4222 51.4223 37.4222 50.0445 34.9333 49.3334C36 48.089 36.5333 46.5778 36.5333 44.8001V43.7334C36.5333 41.7778 35.8667 40.089 34.5333 38.6667C33.2 37.2445 31.5111 36.5334 29.4667 36.5334C27.4222 36.5334 25.7333 37.2445 24.4 38.6667C23.0667 40.089 22.4 41.7778 22.4 43.7334V44.8001C22.4 46.5778 22.9333 48.089 24 49.3334C21.5111 50.0445 19.5111 51.4223 18 53.4667C16.4889 55.5112 15.7333 57.8667 15.7333 60.5334V61.3334H12.5333V23.4667H32.5333V24.8001C32.5333 26.0445 32.9333 27.2445 33.7333 28.4001C34.5333 29.5556 35.6444 30.3112 37.0667 30.6667V34.4001C37.0667 34.9334 37.3333 35.3778 37.8667 35.7334H38.6667C39.0222 35.7334 39.3778 35.6445 39.7333 35.4667L44.2667 30.6667H58.4C60 30.6667 61.3778 30.089 62.5333 28.9334C63.6889 27.7778 64.2667 26.4001 64.2667 24.8001V23.4667H67.4667V61.3334H43.2ZM70.6667 61.3334V22.1334C70.6667 21.6001 70.4889 21.2001 70.1333 20.9334C69.7778 20.6667 69.4222 20.5334 69.0667 20.5334H64.2667V17.3334H69.0667C70.3111 17.3334 71.4222 17.7778 72.4 18.6667C73.3778 19.5556 73.8667 20.7112 73.8667 22.1334V61.3334H70.6667ZM43.4667 66.9334H36.5333C36.1778 66.9334 35.8222 67.1112 35.4667 67.4667C35.1111 67.8223 34.9333 68.2223 34.9333 68.6667C34.9333 69.1112 35.1111 69.4667 35.4667 69.7334C35.8222 70.0001 36.1778 70.1334 36.5333 70.1334H43.4667C44 70.1334 44.4 70.0001 44.6667 69.7334C44.9333 69.4667 45.0667 69.1112 45.0667 68.6667C45.0667 68.2223 44.9333 67.8223 44.6667 67.4667C44.4 67.1112 44 66.9334 43.4667 66.9334ZM44.8 23.4667C45.3333 23.8223 45.8667 24.0001 46.4 24.0001C46.9333 24.0001 47.3778 23.8223 47.7333 23.4667L53.6 20.0001C54.6667 19.4667 55.2 18.6223 55.2 17.4667C55.2 16.3112 54.6667 15.4667 53.6 14.9334L47.7333 11.4667C46.8444 10.9334 45.8667 10.9334 44.8 11.4667C43.7333 12.0001 43.2 12.889 43.2 14.1334V20.8001C43.2 22.0445 43.7333 22.9334 44.8 23.4667ZM46.4 14.4001L52 17.6001L46.4 20.5334V14.4001ZM40 72.5334C39.6444 72.5334 39.2889 72.7112 38.9333 73.0667C38.5778 73.4223 38.4 73.8223 38.4 74.2667C38.4 74.7112 38.5778 75.0667 38.9333 75.3334C39.2889 75.6001 39.6444 75.7334 40 75.7334C40.3556 75.7334 40.7111 75.6001 41.0667 75.3334C41.4222 75.0667 41.6 74.7112 41.6 74.2667C41.6 73.8223 41.4222 73.4223 41.0667 73.0667C40.7111 72.7112 40.3556 72.5334 40 72.5334Z" fill="white"/>
</g>
<defs>
<clipPath id="clip0_1_2501">
<rect width="80" height="80" fill="white" transform="matrix(1 0 0 -1 0 80)"/>
</clipPath>
</defs>
</svg>
