<svg width="58" height="58" viewBox="0 0 58 58" fill="none" xmlns="http://www.w3.org/2000/svg">
<g filter="url(#filter0_d_425_627)">
<path fill-rule="evenodd" clip-rule="evenodd" d="M34.7076 0.0925006C34.5701 0.153455 34.3521 0.311959 34.2229 0.444671C33.7143 0.968021 33.7073 1.02887 33.7073 4.92258V8.56366L21.6793 8.59298L9.65139 8.6223L9.25129 8.8606C9.03124 8.99177 8.70686 9.26469 8.53041 9.46728C7.86225 10.2343 7.90096 9.21332 7.90096 26.0518V41.3041H6.19604C4.51913 41.3041 4.48702 41.3085 4.24556 41.5747L4 41.8452L4.0022 44.9091C4.0042 47.6377 4.02441 48.0213 4.18715 48.4161C4.3967 48.9245 4.87882 49.4915 5.33593 49.7671C5.6301 49.9446 7.03335 49.959 27.1057 49.9906C43.1834 50.0159 48.697 49.9921 49.1037 49.8957C49.5495 49.79 49.7378 49.6657 50.1573 49.2006C50.4794 48.8436 50.7132 48.4664 50.7899 48.1804C50.8718 47.8748 50.9115 46.7838 50.9115 44.8376V41.9485L50.6191 41.6263L50.3268 41.3041H48.6687H47.0106V30.1163V18.9284H49.9965C52.9343 18.9284 52.9879 18.9243 53.3223 18.6782C54.0516 18.1413 54.017 18.6245 53.9882 9.37436C53.9626 1.19949 53.9595 1.08387 53.756 0.783614C53.6426 0.616182 53.4255 0.376993 53.2736 0.251997C52.9999 0.0268064 52.9163 0.0244916 43.9775 0.00321811C38.1213 -0.0106703 34.8699 0.0206337 34.7076 0.0925006ZM35.3077 9.43807V17.1428L36.2166 17.1814C37.0683 17.2175 37.1407 17.2394 37.3669 17.5292C37.5735 17.7939 37.6083 17.9522 37.6083 18.6293V19.4202L38.6103 18.32L39.6124 17.2199L46.0121 17.1899L52.4119 17.16V9.44656V1.73321H43.8598H35.3077V9.43807ZM39.169 6.28177C38.4719 6.72234 38.4085 6.98942 38.4085 9.48734C38.4085 11.5359 38.4227 11.7065 38.6269 12.107C38.7661 12.3799 38.9953 12.6152 39.2587 12.7557C39.6398 12.959 39.8763 12.9762 42.3009 12.9762C44.5308 12.9762 44.9824 12.9488 45.2756 12.7953C45.6696 12.5893 46.0624 12.0719 46.1635 11.6259C46.2012 11.4592 46.2531 11.3228 46.2788 11.3228C46.3046 11.3228 46.6007 11.5584 46.9368 11.8464C48.3637 13.0685 48.6365 13.1786 49.0656 12.7056L49.3111 12.4351V9.5041V6.57309L49.0656 6.3026C48.6587 5.85409 48.37 5.94316 47.262 6.85924L46.2631 7.68505L46.1348 7.27677C46.0642 7.05224 45.9061 6.74824 45.7834 6.60142C45.3384 6.0687 45.1082 6.03189 42.2376 6.03376C39.6499 6.03552 39.5454 6.04401 39.169 6.28177ZM40.0088 9.5041V11.2126H42.3094H44.61V9.5041V7.79561H42.3094H40.0088V9.5041ZM47.1736 9.15182L46.7864 9.51281L47.1236 9.79179C47.7262 10.2907 47.7107 10.2981 47.7107 9.5106C47.7107 9.11302 47.677 8.78841 47.6357 8.78929C47.5944 8.79017 47.3865 8.9533 47.1736 9.15182ZM9.95146 10.4581C9.48145 10.7414 9.50135 10.0485 9.50135 26.1141V41.3041H27.4558H45.4102V30.1163V18.9284H44.6615H43.9129L43.8863 29.0236L43.8598 39.1188L43.5791 39.3848L43.2985 39.6508H27.3956H11.4927L11.2473 39.3801L11.0017 39.1097V25.8898C11.0017 13.0381 11.007 12.6627 11.193 12.4098L11.3841 12.1495L22.5207 12.0944L33.6573 12.0393L33.6865 11.185L33.7157 10.3308L21.9336 10.3341C13.5985 10.3365 10.093 10.3728 9.95146 10.4581ZM12.6021 19.4244V24.9908H14.1403H15.6784L15.7209 24.0123C15.7564 23.1944 15.815 22.9185 16.078 22.3314C16.251 21.945 16.6172 21.3859 16.8917 21.0888L17.3906 20.5487L17.1395 20.1859C15.9591 18.4805 16.5161 15.9496 18.2821 14.994C19.0526 14.577 20.2052 14.5567 20.9278 14.9475C21.9124 15.4798 22.6425 16.6098 22.7703 17.7992C22.8433 18.4778 22.6224 19.3559 22.2034 20.053L21.8944 20.5671L22.3495 21.0294C22.6121 21.296 22.9422 21.7993 23.1297 22.2187C23.4117 22.8494 23.4594 23.0813 23.4895 23.9683L23.5241 24.9908H25.0649H26.6056V19.4244V13.858H19.6038H12.6021V19.4244ZM28.2059 19.4244V24.9908H35.2593H42.3126L42.286 21.9871L42.2594 18.9835L41.3144 18.9515L40.3692 18.9196L38.8138 20.6215C37.9581 21.5577 37.1535 22.3578 37.0257 22.3996C36.7082 22.5034 36.2577 22.278 36.1209 21.9469C36.0562 21.7906 36.0079 21.0864 36.0079 20.301V18.9284H35.3725C34.8785 18.9284 34.6615 18.8727 34.3973 18.6782C33.7848 18.2273 33.7076 17.9007 33.7075 15.7594L33.7073 13.858H30.9566H28.2059V19.4244ZM19.0487 16.5422C18.0286 17.0519 17.8154 18.5435 18.6474 19.3484C19.5096 20.1827 20.771 19.7565 21.1079 18.5172C21.4519 17.252 20.1423 15.9958 19.0487 16.5422ZM18.8922 21.7259C17.9124 22.1117 17.3978 22.9159 17.3245 24.1758L17.277 24.9908H19.5906H21.9044V24.2148C21.9044 23.2848 21.6985 22.7662 21.1084 22.2096C20.4657 21.6033 19.6534 21.4261 18.8922 21.7259ZM12.6021 32.3208V37.8871H14.1386H15.6752L15.7257 36.911C15.7875 35.7146 16.1615 34.7792 16.8969 33.981L17.378 33.4588L17.0438 32.9116C16.6463 32.2607 16.5044 31.7518 16.5037 30.9747C16.5024 29.7229 17.2311 28.4591 18.2821 27.8904C18.7684 27.6271 18.9729 27.582 19.6538 27.587C20.3195 27.592 20.5413 27.6427 20.9729 27.8885C22.742 28.8961 23.2999 31.2277 22.1952 32.997L21.9026 33.4657L22.4098 34.0246C23.1552 34.846 23.4442 35.6077 23.4883 36.8676L23.5241 37.8871H25.0649H26.6056V32.3208V26.7544H19.6038H12.6021V32.3208ZM28.2059 32.3208V37.8871H29.7563H31.3067L31.3091 37.2533C31.3142 35.9551 31.68 34.9451 32.4716 34.0438L32.9913 33.4521L32.6965 33.0037C31.5717 31.2925 32.1787 28.8168 33.96 27.8509C34.3621 27.6328 34.6109 27.5811 35.2577 27.5811C35.9878 27.5811 36.1149 27.6157 36.708 27.9756C38.4073 29.0066 38.9195 31.3294 37.8172 33.0061L37.524 33.4521L38.0438 34.0438C38.8347 34.9442 39.2086 36.0061 39.2086 37.351V37.8871H40.759H42.3094V32.3208V26.7544H35.2577H28.2059V32.3208ZM19.0537 29.4452C17.8903 30.015 17.7896 31.7829 18.882 32.4594C19.5594 32.8791 20.3204 32.7241 20.8244 32.064C21.4391 31.259 21.187 30.0261 20.3078 29.5376C19.8018 29.2564 19.4866 29.2331 19.0537 29.4452ZM34.6525 29.4386C33.6293 29.9499 33.4193 31.44 34.2565 32.25C35.4236 33.3793 37.2137 32.0686 36.6979 30.4623C36.414 29.5777 35.3949 29.0677 34.6525 29.4386ZM18.8922 34.6157C17.9026 35.0234 17.3977 35.8146 17.3245 37.0721L17.277 37.8871H19.5906H21.9044V37.1101C21.9044 36.2715 21.7655 35.8461 21.3179 35.3143C20.7401 34.6279 19.6349 34.3097 18.8922 34.6157ZM34.5075 34.6142C34.3149 34.6811 33.9293 34.9863 33.6504 35.2923C33.1016 35.8945 32.9071 36.4424 32.9071 37.3848V37.8871H35.2577H37.6083V37.3848C37.6083 36.5237 37.4158 35.9363 36.9442 35.3582C36.2945 34.5619 35.4237 34.296 34.5075 34.6142ZM5.60039 45.3702C5.60039 47.473 5.617 47.6953 5.79164 47.933L5.98279 48.1932L27.1719 48.2246C38.8259 48.2419 48.507 48.2273 48.6858 48.1921C49.2493 48.0812 49.3111 47.7931 49.3111 45.2778V43.0677H27.4558H5.60039V45.3702Z" fill="white"/>
</g>
<defs>
<filter id="filter0_d_425_627" x="0" y="0" width="58" height="58" filterUnits="userSpaceOnUse" color-interpolation-filters="sRGB">
<feFlood flood-opacity="0" result="BackgroundImageFix"/>
<feColorMatrix in="SourceAlpha" type="matrix" values="0 0 0 0 0 0 0 0 0 0 0 0 0 0 0 0 0 0 127 0" result="hardAlpha"/>
<feOffset dy="4"/>
<feGaussianBlur stdDeviation="2"/>
<feComposite in2="hardAlpha" operator="out"/>
<feColorMatrix type="matrix" values="0 0 0 0 0 0 0 0 0 0 0 0 0 0 0 0 0 0 0.25 0"/>
<feBlend mode="normal" in2="BackgroundImageFix" result="effect1_dropShadow_425_627"/>
<feBlend mode="normal" in="SourceGraphic" in2="effect1_dropShadow_425_627" result="shape"/>
</filter>
</defs>
</svg>
