<svg width="197" height="118" viewBox="0 0 197 118" fill="none" xmlns="http://www.w3.org/2000/svg">
<path d="M179.211 63.2299C178.265 60.9618 177.713 59.5336 177.004 58.1478C176.294 56.7621 174.715 55.9248 173.41 56.7476C172.541 57.2962 171.907 58.727 171.709 59.8836C171.549 61.1873 172.259 62.5731 172.771 64.4848C170.243 63.902 168.862 62.5388 167.243 61.5545C165.032 60.2562 163.531 60.3437 162.542 61.7124C161.553 63.081 161.867 64.8881 163.565 66.1665C167.354 68.9326 171.302 71.6564 175.21 74.2331C177.855 75.8877 179.91 75.3365 181.532 72.537C182.601 70.8318 183.274 68.9174 184.342 67.2122C186.519 63.3183 188.695 59.4245 190.872 55.5306C191.822 54.0149 191.942 52.5642 190.442 51.3904C189.139 50.3213 186.848 50.6209 185.701 52.0319C184.672 53.2535 183.841 54.5797 183.01 55.9059C181.902 58.0946 180.794 60.2833 179.211 63.2299Z" fill="#0540F2"/>
<path d="M59.1271 59.509C58.8516 58.4796 58.9709 57.6596 58.6554 57.1137C57.9451 56.3586 56.8794 55.5412 56.0104 55.4591C55.2995 55.3346 54.0344 56.3044 53.757 57.1669C53.0048 58.7873 52.8449 60.7216 52.2107 62.7831C51.1831 63.374 49.958 63.8603 48.8116 64.6407C47.3491 65.5059 46.3208 66.7275 46.9905 68.5968C47.8182 70.4238 49.3588 70.4833 51.0187 69.7228C51.4929 69.5956 51.809 69.5108 52.4018 69.1941C53.7044 70.2632 54.176 72.6585 56.7049 71.9801C59.866 71.132 58.486 68.5075 59.1595 66.5931C60.1871 66.0021 61.2148 65.4112 62.2818 64.9673C63.7837 64.2492 64.812 63.0276 64.2604 61.5994C63.8662 60.7595 62.3656 60.2164 61.3786 59.6931C60.5889 59.2745 59.9961 59.5911 59.1271 59.509Z" fill="#0540F2"/>
<path d="M85.0731 24.8049C83.768 26.2583 82.5423 27.3752 83.3307 29.0551C84.1191 30.735 85.6596 30.7945 87.5563 30.2857C92.456 28.9712 97.395 27.8038 102.295 26.4893C104.033 26.0229 105.575 25.4518 105.537 23.4128C105.618 21.815 103.881 20.3896 101.787 20.7938C96.1763 21.9837 90.6444 23.4678 85.0731 24.8049Z" fill="#0540F2"/>
<path d="M24.8919 89.8131C23.6925 87.9283 21.1475 87.5077 20.2048 89.1792C18.2361 92.8597 16.5475 96.9379 15.1831 100.929C15.0164 101.604 16.2992 103.151 17.2671 103.522C18.5153 104.291 19.8168 103.311 20.514 102.021C22.0751 98.7648 23.4742 95.5524 24.8338 92.193C25.1234 91.3272 24.8479 90.2978 24.8919 89.8131Z" fill="#0540F2"/>
<path d="M130.23 21.356C129.48 21.0844 128.256 20.3094 127.071 20.3121C123.634 20.1308 120.237 20.0965 116.84 20.0622C115.299 20.0026 114.153 20.783 113.875 22.2762C113.636 23.9164 114.504 25.2597 116.044 25.3193C120.192 25.6251 124.339 25.931 128.369 25.7957C130.542 25.6856 131.453 23.3922 130.23 21.356Z" fill="#0540F2"/>
<path d="M71.3577 36.8363C70.1745 34.9471 68.0023 34.4265 66.8553 35.8376C64.3239 39.0385 61.9106 42.6807 59.774 46.091C58.9431 47.4172 59.6921 48.95 61.2321 49.6402C62.772 50.3304 64.0764 49.5076 64.9073 48.1814C66.7271 45.4865 68.5863 42.9387 70.2481 40.2863C71.1184 39.1071 71.2383 37.6564 71.3577 36.8363Z" fill="#0540F2"/>
<path d="M57.4128 76.5127C57.2154 76.4081 55.9915 75.6331 55.0432 75.8875C54.0949 76.1419 52.7898 77.5954 52.7099 78.5625C52.6661 82.8299 54.0448 86.7157 57.2414 89.7985C58.3859 90.91 59.8471 91.306 61.2703 90.2938C62.8514 89.2391 62.4972 87.9156 61.7876 86.5298C60.4869 83.5688 59.147 80.4608 57.4128 76.5127Z" fill="#0540F2"/>
<path d="M170.859 44.6615C169.438 43.1512 167.307 40.8858 164.899 38.8522C163.794 37.8878 162.175 37.5341 160.791 38.6934C159.289 40.0422 159.682 41.5128 160.708 42.8137C162.444 44.8698 164.299 46.7365 166.035 48.7926C167.771 50.8487 169.311 51.5389 170.734 50.5266C172.355 49.619 172.475 47.5377 170.859 44.6615Z" fill="#0540F2"/>
<path d="M77.2944 100.183C79.073 99.2326 79.431 96.7723 77.6937 95.9775C74.1796 94.2408 70.5863 92.8405 66.8742 91.6298C66.1239 91.3582 64.5827 91.9293 64.2266 92.4977C63.7518 93.2555 63.6318 94.7063 64.1841 95.5038C65.3667 98.0236 73.3037 101.096 76.188 100.479C76.5435 100.542 76.9783 100.267 77.2944 100.183Z" fill="#0540F2"/>
<path d="M98.7011 68.7469C97.3979 68.3084 96.3321 67.491 95.3838 67.7455C94.4355 67.9999 93.0517 69.1592 93.0904 69.9369C93.2053 73.5312 93.5177 77.2302 94.1067 80.6973C94.3035 81.4326 95.8828 82.2699 96.7518 82.352C97.5814 82.287 99.1232 81.0853 99.2819 80.4123C99.2463 76.4814 98.934 72.7824 98.7011 68.7469Z" fill="#0540F2"/>
<path d="M150.283 34.2627C151.944 32.8715 152.261 31.5254 151.236 30.2245C150.525 29.4693 149.499 28.799 148.512 28.2757C146.538 27.2292 144.247 26.2674 142.273 25.2209C140.891 24.4883 139.706 24.491 138.639 25.5655C137.294 26.8719 137.648 28.1954 138.635 29.3493C139.108 29.8527 139.582 30.3561 140.174 30.6701C142.504 31.7789 144.873 33.0348 147.321 33.9541C148.111 34.3727 149.414 34.1806 150.283 34.2627Z" fill="#0540F2"/>
<path d="M33.1197 73.7338C31.4192 75.6085 29.3632 77.421 27.8995 79.5475C26.8712 80.7691 27.1067 82.2821 28.5279 83.1617C29.9491 84.0413 31.1742 83.5551 32.558 82.3957C34.1792 80.8575 35.879 79.6134 37.6976 78.1798C39.1207 77.1675 40.149 75.946 39.3607 74.2661C38.651 72.8803 36.8343 72.422 34.7003 73.3098C34.2261 73.437 33.9493 73.6688 33.5145 73.9431C33.3565 73.9855 33.1591 73.8808 33.1197 73.7338Z" fill="#0540F2"/>
<path d="M85.6751 59.9486C84.6487 59.2783 83.9777 58.6702 83.2274 58.3986C81.0159 57.731 78.8044 57.0634 76.5929 56.3957C74.9737 56.0421 73.3538 56.319 72.957 58.0016C72.719 59.0112 73.3493 60.7335 74.139 61.1521C76.824 62.3231 79.7858 63.2623 82.8269 63.865C83.5379 63.9895 84.8423 63.1667 85.3564 62.5559C85.8312 61.7981 85.5557 60.7687 85.6751 59.9486Z" fill="#0540F2"/>
<path d="M91.6819 96.322C92.7496 95.2475 94.4895 93.5198 95.9926 91.5404C97.1396 90.1294 96.8647 88.4693 95.2461 87.485C93.8248 86.6054 92.5204 87.4282 91.2947 88.5451C89.7922 89.8939 88.3291 91.3897 86.7873 92.5914C85.2455 93.7932 83.8223 94.8054 84.8475 96.737C85.5965 98.2698 87.6506 98.3492 89.9033 97.272C90.3381 96.9978 90.4962 96.9554 91.6819 96.322Z" fill="#0540F2"/>
</svg>
