<svg width="23" height="31" viewBox="0 0 23 31" fill="none" xmlns="http://www.w3.org/2000/svg">
<path d="M16.1875 12C16.1875 14.6367 14.0781 16.6875 11.5 16.6875C8.86328 16.6875 6.8125 14.6367 6.8125 12C6.8125 9.42188 8.86328 7.3125 11.5 7.3125C14.0781 7.3125 16.1875 9.42188 16.1875 12ZM11.5 14.8125C13.0234 14.8125 14.3125 13.582 14.3125 12C14.3125 10.4766 13.0234 9.1875 11.5 9.1875C9.91797 9.1875 8.6875 10.4766 8.6875 12C8.6875 13.582 9.91797 14.8125 11.5 14.8125ZM22.75 12C22.75 17.1562 15.8945 26.2383 12.8477 30.0469C12.1445 30.9258 10.7969 30.9258 10.0938 30.0469C7.04688 26.2383 0.25 17.1562 0.25 12C0.25 5.78906 5.23047 0.75 11.5 0.75C17.7109 0.75 22.75 5.78906 22.75 12ZM11.5 2.625C6.28516 2.625 2.125 6.84375 2.125 12C2.125 12.9375 2.41797 14.168 3.0625 15.75C3.70703 17.2734 4.58594 18.9141 5.64062 20.5547C7.63281 23.7773 9.97656 26.8828 11.5 28.7578C12.9648 26.8828 15.3086 23.7773 17.3008 20.5547C18.3555 18.9141 19.2344 17.2734 19.8789 15.75C20.5234 14.168 20.875 12.9375 20.875 12C20.875 6.84375 16.6562 2.625 11.5 2.625Z" fill="white"/>
</svg>
