<svg width="27" height="34" viewBox="0 0 27 34" fill="none" xmlns="http://www.w3.org/2000/svg">
<path d="M17.357 27.1544C17.357 27.4896 17.2345 27.7991 17.0217 28.0312H5.62303C4.8687 27.2188 5.49409 25.8004 6.6159 25.8262H16.0288C16.7638 25.8262 17.357 26.4194 17.357 27.1544ZM5.62303 28.9273C4.8687 29.7397 5.49409 31.1581 6.6159 31.1323H16.0288C17.1507 31.1581 17.776 29.7332 17.0153 28.9273H5.62303ZM9.36887 33.4404H13.2823C14.1205 33.4404 14.8103 32.8279 14.9457 32.0285H7.70548C7.84087 32.8279 8.53073 33.4404 9.36887 33.4404ZM17.8341 20.2365C16.4544 21.4357 15.6098 23.1248 15.4357 24.9301H12.5796V6.87785C12.5796 6.49746 12.9019 6.19444 13.2823 6.22668C20.3356 6.85206 23.0885 15.7041 17.8341 20.2365ZM19.0848 14.2019C19.1042 11.4941 17.3247 8.95385 14.7587 8.07058C14.4944 7.97387 14.1914 8.11571 14.1011 8.3865C14.0044 8.65728 14.1398 8.9474 14.4106 9.04411C16.564 9.78554 18.0662 11.9196 18.0468 14.2019C18.0597 14.8788 19.0784 14.8788 19.0848 14.2019ZM5.96473 21.8612C6.29999 21.513 7.06076 21.0617 7.34444 21.7C7.44759 21.9643 7.3122 22.2674 7.04142 22.3705C5.88092 22.8992 6.48051 24.4659 7.2026 24.9301H9.51715C10.0136 24.569 10.3359 23.9888 10.3359 23.3312V8.7153C10.3231 6.60706 7.4347 5.98813 6.57077 7.90295C7.26707 8.03835 9.32373 9.79199 7.84732 10.1208C7.35733 10.1015 7.24773 9.45029 6.8609 9.23108C4.92028 7.69664 2.16087 9.79844 2.99901 12.0356C3.87583 11.8744 5.02989 12.3064 5.61658 13.0478C5.90671 13.3637 5.64237 13.9118 5.2233 13.8989C5.07502 13.8989 4.93318 13.8344 4.83002 13.7119C4.69463 13.5507 4.39161 13.2541 3.91452 13.1188C3.57926 13.0092 3.11506 13.0349 2.84428 13.1252C0.168682 13.9053 -0.0505235 17.7092 2.50258 18.7988C2.85073 18.2378 4.88805 16.6841 5.25554 17.7736C5.32646 18.0509 5.15238 18.3346 4.8816 18.399C1.94167 19.1276 2.34784 23.2538 5.37804 23.3376C5.38448 22.8347 5.54566 22.2803 5.96473 21.8612ZM19.5232 7.85138C19.6586 7.85138 19.7876 7.7998 19.8907 7.70309L22.2826 5.31117C22.7533 4.82118 22.0377 4.10554 21.5541 4.58264L19.1622 6.97455C18.8269 7.27757 19.0784 7.86427 19.5232 7.85138ZM25.777 13.757H22.3987C21.7153 13.7699 21.7217 14.7821 22.3987 14.7886H25.777C26.4604 14.7821 26.454 13.7699 25.777 13.757ZM19.8843 20.8554C19.3943 20.3848 18.6786 21.1004 19.1557 21.584L21.5477 23.9759C22.0312 24.453 22.7533 23.7244 22.2762 23.2473C22.2762 23.2409 19.8843 20.8554 19.8843 20.8554ZM12.5796 4.97592C12.8633 4.97592 13.0954 4.74382 13.0954 4.46014V1.07535C13.0954 0.79167 12.8633 0.55957 12.5796 0.55957C12.2959 0.55957 12.0638 0.79167 12.0638 1.07535V4.45369C12.0638 4.74382 12.2959 4.97592 12.5796 4.97592Z" fill="#0540F2"/>
</svg>
