<svg width="25" height="25" viewBox="0 0 25 25" fill="none" xmlns="http://www.w3.org/2000/svg">
<path fill-rule="evenodd" clip-rule="evenodd" d="M19.2929 16.0723V24.701C19.2929 24.7304 19.2689 24.7544 19.2395 24.7544H10.9517C10.9362 24.7544 10.9209 24.7553 10.9058 24.7569C10.7847 24.7675 10.6735 24.7758 10.575 24.7814C10.5598 24.7822 10.5464 24.7773 10.5354 24.7668C10.5244 24.7564 10.5187 24.7433 10.5187 24.7281V21.7884C10.5187 21.5526 10.3276 21.3615 10.0918 21.3615H8.57757C8.29384 21.3615 8.03559 21.2451 7.84804 21.0575C7.66055 20.87 7.54414 20.6117 7.54414 20.3279C7.54414 20.0442 7.66055 19.7859 7.84804 19.5984C8.03559 19.4108 8.29384 19.2944 8.57757 19.2944H10.0918C10.3276 19.2944 10.5187 19.1033 10.5187 18.8675V16.0723C10.5187 16.0429 10.5427 16.0189 10.5721 16.0189H12.887C12.9164 16.0189 12.9403 16.0429 12.9403 16.0723V17.1061C12.9403 17.6255 13.1526 18.0975 13.4944 18.4394C13.8363 18.7812 14.3082 18.9935 14.8277 18.9935C15.3471 18.9935 15.8191 18.7812 16.161 18.4394C16.5028 18.0975 16.715 17.6255 16.715 17.1061V16.0723C16.715 16.0429 16.739 16.0189 16.7684 16.0189H19.2394C19.2689 16.0189 19.2929 16.0429 19.2929 16.0723ZM24.0811 8.98765L24.0808 8.98294V0.270622C24.0808 0.241225 24.0569 0.217285 24.0275 0.217285H14.5449C14.5155 0.217285 14.4916 0.241225 14.4916 0.270622V3.59555C14.4916 3.62495 14.5155 3.64889 14.5449 3.64889H16.0057C16.8089 3.64889 17.4661 4.30605 17.4661 5.10926C17.4661 5.91248 16.8089 6.56976 16.0057 6.56976H14.5449C14.5155 6.56976 14.4916 6.5937 14.4916 6.6231V9.79192C14.4916 9.82132 14.5155 9.84526 14.5449 9.84526H17.7137C17.7431 9.84526 17.7671 9.8692 17.7671 9.8986V11.3594C17.7671 12.1626 18.4242 12.8198 19.2274 12.8198C20.0307 12.8198 20.6879 12.1626 20.6879 11.3594V9.8986C20.6879 9.8692 20.7119 9.84526 20.7413 9.84526H24.0661C24.0808 9.84526 24.0935 9.83999 24.1039 9.82951C24.1143 9.81902 24.1195 9.80631 24.1194 9.79155C24.1178 9.52084 24.1045 9.25272 24.0811 8.98765ZM0.943962 15.165H3.41507C3.44447 15.165 3.46841 15.141 3.46841 15.1116V14.0778C3.46841 13.5583 3.68064 13.0864 4.02249 12.7445C4.36434 12.4027 4.83631 12.1905 5.35572 12.1905C5.8752 12.1905 6.34717 12.4027 6.68902 12.7445C7.03087 13.0864 7.2431 13.5584 7.2431 14.0778V15.1116C7.2431 15.141 7.26704 15.165 7.2965 15.165H9.61144C9.64084 15.165 9.66478 15.141 9.66478 15.1116V12.3164C9.66478 12.0806 9.85592 11.8895 10.0917 11.8895H11.6059C11.8897 11.8895 12.1479 11.7731 12.3355 11.5855C12.5229 11.398 12.6394 11.1397 12.6394 10.856C12.6394 10.5722 12.5229 10.3139 12.3355 10.1264C12.1479 9.93885 11.8897 9.82244 11.6059 9.82244H10.0917C9.85592 9.82244 9.66478 9.63129 9.66478 9.39549V6.45583C9.66478 6.44063 9.65913 6.42755 9.64809 6.41707C9.63705 6.40659 9.62366 6.40175 9.60846 6.40255C9.50998 6.40807 9.39971 6.41626 9.27864 6.42687C9.26357 6.42848 9.24726 6.42947 9.23176 6.42947H0.943962C0.914565 6.42947 0.890625 6.45341 0.890625 6.48281V15.1116C0.890625 15.141 0.914627 15.165 0.943962 15.165ZM9.61144 22.2152H8.57757C8.05816 22.2152 7.58619 22.003 7.24434 21.6612C6.90249 21.3193 6.69026 20.8473 6.69026 20.3279C6.69026 19.8084 6.90249 19.3365 7.24434 18.9946C7.58619 18.6528 8.05816 18.4405 8.57757 18.4405H9.61144C9.64084 18.4405 9.66478 18.4166 9.66478 18.3872V16.0723C9.66478 16.0429 9.64084 16.0189 9.61144 16.0189H6.81622C6.58042 16.0189 6.38928 15.8278 6.38928 15.592V14.0778C6.38928 13.7941 6.27287 13.5359 6.08532 13.3483C5.89783 13.1608 5.63952 13.0444 5.35578 13.0444C5.07198 13.0444 4.81373 13.1608 4.62619 13.3483C4.4387 13.5358 4.32223 13.7941 4.32223 14.0778V15.592C4.32223 15.8278 4.13108 16.0189 3.89529 16.0189H0.955745C0.940551 16.0189 0.927403 16.0246 0.916983 16.0356C0.906564 16.0467 0.901665 16.0601 0.902471 16.0752C0.907991 16.1737 0.916177 16.2839 0.926782 16.4051L0.926906 16.4061C0.928519 16.4211 0.929387 16.4364 0.929387 16.452V24.7397C0.929387 24.7691 0.953327 24.7931 0.982724 24.7931H9.6115C9.6409 24.7931 9.66484 24.7691 9.66484 24.7397V22.2686C9.66484 22.2392 9.64084 22.2152 9.61144 22.2152Z" fill="#0540F2"/>
</svg>
