<svg width="34" height="34" viewBox="0 0 34 34" fill="none" xmlns="http://www.w3.org/2000/svg">
<g clip-path="url(#clip0_449_2491)">
<path d="M27.6331 19.481V24.1042C27.6331 25.7834 26.6446 27.2819 25.1142 27.9834C23.2543 28.8336 20.4379 29.7583 17.005 29.7583C13.5721 29.7583 10.7557 28.8336 8.88517 27.9834C7.36536 27.2819 6.37695 25.7834 6.37695 24.1042V19.481L13.9335 22.9351C14.9007 23.3815 15.9422 23.6046 17.005 23.6046C18.0678 23.6046 19.1094 23.3815 20.0765 22.9351L27.6331 19.481Z" fill="#0540F2"/>
<path d="M31.8834 17.5361V24.4444C31.8834 25.0289 31.4052 25.5072 30.8206 25.5072C30.2361 25.5072 29.7578 25.0289 29.7578 24.4444V18.5139L31.8834 17.5361Z" fill="#0540F2"/>
<path d="M14.8134 21.0052C15.5095 21.323 16.2567 21.4824 17.0049 21.4824C17.7531 21.4824 18.4992 21.3241 19.1964 21.0052L32.7695 14.8006C33.5347 14.4509 34.0098 13.7101 34.0098 12.8673C34.0098 12.0245 33.5347 11.2827 32.7695 10.933L19.1964 4.72942C17.803 4.0928 16.2078 4.0928 14.8144 4.72942L1.24029 10.932C0.475074 11.2827 0 12.0235 0 12.8663C0 13.7091 0.475074 14.4498 1.24029 14.8006L14.8134 21.0052Z" fill="#0540F2"/>
</g>
<defs>
<clipPath id="clip0_449_2491">
<rect width="34.0098" height="34.0098" fill="white"/>
</clipPath>
</defs>
</svg>
