<svg width="48" height="48" viewBox="0 0 48 48" fill="none" xmlns="http://www.w3.org/2000/svg">
<path d="M46.0142 10.6444C44.1345 9.55875 41.7214 10.2056 40.6358 12.0853L37.1426 18.1369V13.125C37.1426 12.6075 36.7226 12.1875 36.2051 12.1875C35.6867 12.1875 35.2676 12.6075 35.2676 13.125V21.375V21.3834L24.9711 39.2175C24.9055 39.33 24.8651 39.4556 24.8511 39.5859L24.1461 46.125H1.89264V1.875H35.2676V4.6875C35.2676 5.205 35.6867 5.625 36.2051 5.625C36.7226 5.625 37.1426 5.205 37.1426 4.6875V0.9375C37.1426 0.42 36.7226 0 36.2051 0H0.955139C0.436702 0 0.0176392 0.42 0.0176392 0.9375V47.0625C0.0176392 47.58 0.436702 48 0.955139 48H36.2051C36.7226 48 37.1426 47.58 37.1426 47.0625V33.8859L47.4561 16.0228C48.5408 14.1431 47.8948 11.73 46.0142 10.6444ZM26.5611 41.2181L29.2639 42.7781L26.1476 45.0544L26.5611 41.2181ZM35.2676 46.125H27.8614L31.5326 43.4428C31.6376 43.3659 31.7258 43.2675 31.7914 43.155L35.2676 37.1344V46.125ZM30.6364 41.4056L27.0636 39.3431L40.7858 15.5766L44.3576 17.6391L30.6364 41.4056ZM45.8314 15.0853L45.2951 16.0153L41.7233 13.9528L42.2595 13.0228C42.8276 12.0384 44.0923 11.7 45.0767 12.2681C46.062 12.8372 46.4005 14.1009 45.8314 15.0853Z" fill="white"/>
<path d="M36.2051 7.96875C35.9576 7.96875 35.7167 8.06906 35.5423 8.24344C35.368 8.41781 35.2676 8.65969 35.2676 8.90625C35.2676 9.15375 35.368 9.39469 35.5423 9.56906C35.7167 9.74344 35.9586 9.84375 36.2051 9.84375C36.4517 9.84375 36.6936 9.74344 36.868 9.56906C37.0423 9.39469 37.1426 9.15281 37.1426 8.90625C37.1426 8.65969 37.0423 8.41781 36.868 8.24344C36.6936 8.06906 36.4526 7.96875 36.2051 7.96875Z" fill="white"/>
<path d="M28.0489 9.9375H9.11139C8.59295 9.9375 8.17389 10.3575 8.17389 10.875C8.17389 11.3925 8.59295 11.8125 9.11139 11.8125H28.0489C28.5664 11.8125 28.9864 11.3925 28.9864 10.875C28.9864 10.3575 28.5664 9.9375 28.0489 9.9375Z" fill="white"/>
<path d="M28.0489 15.1875H9.11139C8.59295 15.1875 8.17389 15.6075 8.17389 16.125C8.17389 16.6425 8.59295 17.0625 9.11139 17.0625H28.0489C28.5664 17.0625 28.9864 16.6425 28.9864 16.125C28.9864 15.6075 28.5664 15.1875 28.0489 15.1875Z" fill="white"/>
<path d="M28.0489 20.4375H21.088C20.5695 20.4375 20.1505 20.8575 20.1505 21.375C20.1505 21.8925 20.5695 22.3125 21.088 22.3125H28.0489C28.5664 22.3125 28.9864 21.8925 28.9864 21.375C28.9864 20.8575 28.5664 20.4375 28.0489 20.4375Z" fill="white"/>
<path d="M28.9864 26.625C28.9864 26.1075 28.5664 25.6875 28.0489 25.6875H9.11139C8.59295 25.6875 8.17389 26.1075 8.17389 26.625C8.17389 27.1425 8.59295 27.5625 9.11139 27.5625H28.0489C28.5664 27.5625 28.9864 27.1425 28.9864 26.625Z" fill="white"/>
<path d="M24.9551 31.875C24.9551 31.3575 24.5351 30.9375 24.0176 30.9375H18.1583C17.6398 30.9375 17.2208 31.3575 17.2208 31.875C17.2208 32.3925 17.6398 32.8125 18.1583 32.8125H24.0176C24.5351 32.8125 24.9551 32.3925 24.9551 31.875Z" fill="white"/>
<path d="M9.11139 38.0625H17.3614C17.8789 38.0625 18.2989 37.6425 18.2989 37.125C18.2989 36.6075 17.8789 36.1875 17.3614 36.1875H9.11139C8.59295 36.1875 8.17389 36.6075 8.17389 37.125C8.17389 37.6425 8.59295 38.0625 9.11139 38.0625Z" fill="white"/>
<path d="M9.11139 22.3125H15.3608C15.8792 22.3125 16.2983 21.8925 16.2983 21.375C16.2983 20.8575 15.8792 20.4375 15.3608 20.4375H9.11139C8.59295 20.4375 8.17389 20.8575 8.17389 21.375C8.17389 21.8925 8.59295 22.3125 9.11139 22.3125Z" fill="white"/>
<path d="M9.11139 32.8125H13.9395C14.457 32.8125 14.877 32.3925 14.877 31.875C14.877 31.3575 14.457 30.9375 13.9395 30.9375H9.11139C8.59295 30.9375 8.17389 31.3575 8.17389 31.875C8.17389 32.3925 8.59295 32.8125 9.11139 32.8125Z" fill="white"/>
</svg>
