<svg width="44" height="44" viewBox="0 0 44 44" fill="none" xmlns="http://www.w3.org/2000/svg">
<g clip-path="url(#clip0_698_3703)">
<path d="M22 44C34.1503 44 44 34.1503 44 22C44 9.84974 34.1503 0 22 0C9.84974 0 0 9.84974 0 22C0 34.1503 9.84974 44 22 44Z" fill="url(#paint0_linear_698_3703)"/>
<path d="M33.4098 28.2945C33.2961 27.9572 32.4992 27.5991 32.1741 27.4329C31.2464 26.9146 30.3029 26.4086 29.3923 25.8745C28.967 25.613 28.45 25.1277 27.9403 25.1277C26.9479 25.1277 25.5008 28.0696 24.622 28.0696C24.1832 28.0696 23.6124 27.6639 23.2225 27.4329C20.2587 25.7902 18.2102 23.7405 16.5663 20.7803C16.3378 20.3904 15.9308 19.8209 15.9308 19.3809C15.9308 18.5033 18.8763 17.055 18.8763 16.0625C18.8763 15.5565 18.3874 15.0359 18.1271 14.6142C17.593 13.7024 17.0882 12.7589 16.5675 11.8312C16.405 11.5061 16.0469 10.7092 15.7047 10.5943C15.591 10.5454 15.4773 10.5454 15.3637 10.5454C14.7782 10.5454 13.6391 10.8057 13.1013 11.049C12.3044 11.3912 11.7838 12.303 11.3768 13.0351C10.8561 13.9945 10.5469 14.9711 10.5469 16.0613C10.5469 17.5732 11.1653 18.9421 11.6689 20.3244C12.0258 21.3169 12.467 22.2775 13.0194 23.1734C14.7281 25.9393 18.0635 29.2747 20.8294 30.9834C21.7253 31.5359 22.6872 31.9759 23.6784 32.3327C25.062 32.8351 26.4272 33.456 27.9379 33.456C29.0318 33.456 30.0047 33.1467 30.9678 32.6236C31.7011 32.2179 32.6129 31.6947 32.9514 30.9015C33.1959 30.365 33.4562 29.2259 33.4562 28.6392C33.4562 28.5255 33.4562 28.4119 33.4098 28.2945Z" fill="white"/>
</g>
<defs>
<linearGradient id="paint0_linear_698_3703" x1="6.44478" y1="37.5564" x2="37.5564" y2="6.44355" gradientUnits="userSpaceOnUse">
<stop stop-color="#0099FF"/>
<stop offset="1" stop-color="#2965ED"/>
</linearGradient>
<clipPath id="clip0_698_3703">
<rect width="44" height="44" fill="white"/>
</clipPath>
</defs>
</svg>
