<svg width="31" height="31" viewBox="0 0 31 31" fill="none" xmlns="http://www.w3.org/2000/svg">
<path d="M28.3594 20.1445L22.3828 17.5664C21.3281 17.1562 20.0391 17.4492 19.3359 18.3867L17.3438 20.7305C14.2969 19.0312 11.7188 16.4531 10.0195 13.4062L12.4219 11.4727C13.3008 10.7109 13.5938 9.42188 13.125 8.36719L10.6055 2.39062C10.0781 1.21875 8.78906 0.574219 7.55859 0.867188L2.05078 2.15625C0.820312 2.39062 0 3.44531 0 4.73438C0 19.0898 11.6602 30.75 26.0156 30.75C27.3047 30.75 28.3594 29.9297 28.6523 28.6992L29.8828 23.1914C30.1758 21.9609 29.5312 20.6719 28.3594 20.1445ZM26.7773 28.2891C26.7188 28.6406 26.4258 28.9336 26.0156 28.9336C12.7148 28.9336 1.875 18.0352 1.875 4.73438C1.875 4.32422 2.10938 4.03125 2.46094 3.97266L7.96875 2.68359C8.02734 2.68359 8.08594 2.625 8.14453 2.625C8.4375 2.625 8.73047 2.85938 8.90625 3.15234L11.4258 9.07031C11.543 9.42188 11.4844 9.77344 11.1914 10.0078L8.26172 12.4102C7.91016 12.7031 7.79297 13.1719 8.02734 13.582C9.96094 17.5078 13.2422 20.7891 17.2266 22.7227C17.5781 22.957 18.0469 22.8398 18.3398 22.4883L20.7422 19.5586C20.9766 19.2656 21.3281 19.207 21.6797 19.3242L27.5977 21.8438C27.9492 22.0195 28.1836 22.3711 28.0664 22.7812L26.7773 28.2891Z" fill="#0D5EF4"/>
</svg>
