<svg width="14" height="14" viewBox="0 0 14 14" fill="none" xmlns="http://www.w3.org/2000/svg">
<path d="M13.25 8.375C13.7188 8.96875 14 9.71875 13.9688 10.5C13.9688 12.4375 12.4062 14 10.4688 14C9.6875 14 8.9375 13.75 8.34375 13.2812C7.90625 13.375 7.4375 13.4375 6.96875 13.4375C3.4375 13.4375 0.5625 10.5625 0.5625 7C0.5625 6.5625 0.625 6.09375 0.71875 5.65625C0.25 5.0625 0 4.3125 0 3.5C0 1.59375 1.5625 0 3.5 0C4.28125 0 5.03125 0.28125 5.625 0.75C6.0625 0.65625 6.53125 0.59375 7 0.59375C10.5312 0.59375 13.4062 3.46875 13.4062 7C13.4062 7.46875 13.3438 7.9375 13.25 8.375ZM7.1875 11.25C8.90625 11.25 10.6875 10.375 10.6875 8.53125C10.6875 6.9375 9.125 6.40625 7.84375 6.125C6.34375 5.75 5.6875 5.6875 5.6875 5.09375C5.6875 4.59375 6.1875 4.375 7 4.375C8.4375 4.375 8.46875 5.4375 9.34375 5.4375C9.9375 5.4375 10.2812 4.96875 10.2812 4.4375C10.2812 3.375 8.53125 2.6875 6.8125 2.6875C5.25 2.6875 3.40625 3.375 3.40625 5.25C3.40625 7.28125 5.15625 7.46875 7.09375 7.96875C7.90625 8.15625 8.40625 8.25 8.40625 8.84375C8.40625 9.3125 7.875 9.65625 7.09375 9.65625C5.40625 9.65625 5.3125 8.25 4.34375 8.25C3.6875 8.25 3.40625 8.71875 3.40625 9.21875C3.40625 10.3438 5.125 11.25 7.1875 11.25Z" fill="#B3C1D3"/>
</svg>
