<svg width="27" height="27" viewBox="0 0 27 27" fill="none" xmlns="http://www.w3.org/2000/svg">
<g clip-path="url(#clip0_1_2283)">
<rect x="4.5" y="9" width="18" height="8.25" fill="white"/>
<path d="M25.2863 13.5C25.3404 13.0435 25.4687 12.5989 25.666 12.1837C26.1041 11.3893 26.2362 10.4618 26.0372 9.57656C25.6394 8.72891 24.9594 8.04587 24.1135 7.64438C23.7113 7.43172 23.3442 7.15853 23.025 6.83438C22.7953 6.44827 22.6327 6.02605 22.5441 5.58562C22.3959 4.67723 21.933 3.8499 21.2363 3.24844C20.4194 2.80637 19.4796 2.64622 18.5624 2.79281C18.0866 2.8463 17.6052 2.82352 17.1365 2.72531C16.7237 2.54828 16.3419 2.30614 16.0059 2.00813C15.3275 1.34601 14.4434 0.93525 13.4999 0.84375C12.5564 0.93525 11.6724 1.34601 10.994 2.00813C10.6579 2.30614 10.2762 2.54828 9.86336 2.72531C9.39467 2.82352 8.9133 2.8463 8.43743 2.79281C7.52002 2.64603 6.57981 2.80619 5.76274 3.24844C5.06605 3.8499 4.6031 4.67723 4.45493 5.58562C4.36629 6.02605 4.20368 6.44827 3.97399 6.83438C3.65632 7.15664 3.29231 7.42965 2.89399 7.64438C2.04397 8.04293 1.36035 8.72655 0.961802 9.57656C0.7628 10.4618 0.894866 11.3893 1.33305 12.1837C1.53064 12.5989 1.65918 13.0435 1.71358 13.5C1.65944 13.9565 1.5312 14.4011 1.3339 14.8162C0.895709 15.6107 0.763644 16.5382 0.962645 17.4234C1.36038 18.2711 2.04045 18.9542 2.8864 19.3556C3.28856 19.5683 3.65565 19.8415 3.97483 20.1656C4.20452 20.5517 4.36713 20.9739 4.45577 21.4144C4.60394 22.3228 5.06689 23.1501 5.76358 23.7516C6.58065 24.1938 7.52086 24.354 8.43827 24.2072C8.91415 24.1537 9.39551 24.1765 9.86421 24.2747C10.277 24.4517 10.6587 24.6939 10.9948 24.9919C11.673 25.6538 12.5567 26.0646 13.4999 26.1562C14.4434 26.0648 15.3275 25.654 16.0059 24.9919C16.342 24.6939 16.7237 24.4517 17.1365 24.2747C17.6052 24.1765 18.0865 24.1537 18.5624 24.2072C19.4798 24.354 20.42 24.1938 21.2371 23.7516C21.9338 23.1501 22.3968 22.3228 22.5449 21.4144C22.6336 20.9739 22.7962 20.5517 23.0259 20.1656C23.3435 19.8434 23.7075 19.5703 24.1059 19.3556C24.9559 18.9571 25.6395 18.2735 26.0381 17.4234C26.2371 16.5382 26.105 15.6107 25.6668 14.8162C25.4692 14.4011 25.3407 13.9565 25.2863 13.5ZM10.1249 16.0312C10.1244 16.2125 10.066 16.3888 9.95823 16.5345C9.85047 16.6802 9.69899 16.7877 9.52586 16.8412C9.44649 16.8649 9.36398 16.8762 9.28118 16.875C9.14198 16.8755 9.00488 16.841 8.88251 16.7746C8.76013 16.7083 8.65641 16.6122 8.58086 16.4953L6.74993 13.7531V16.0312C6.74993 16.255 6.66103 16.4696 6.5028 16.6279C6.34456 16.7861 6.12995 16.875 5.90618 16.875C5.6824 16.875 5.46779 16.7861 5.30956 16.6279C5.15132 16.4696 5.06243 16.255 5.06243 16.0312V10.9688C5.06296 10.7875 5.12136 10.6112 5.22912 10.4655C5.33688 10.3198 5.48837 10.2123 5.66149 10.1587C5.83521 10.1061 6.02133 10.1114 6.19178 10.1738C6.36224 10.2362 6.50779 10.3524 6.60649 10.5047L8.43743 13.2469V10.9688C8.43743 10.745 8.52632 10.5304 8.68456 10.3721C8.84279 10.2139 9.0574 10.125 9.28118 10.125C9.50495 10.125 9.71956 10.2139 9.8778 10.3721C10.036 10.5304 10.1249 10.745 10.1249 10.9688V16.0312ZM14.3437 12.6562C14.5675 12.6562 14.7821 12.7451 14.9403 12.9034C15.0985 13.0616 15.1874 13.2762 15.1874 13.5C15.1874 13.7238 15.0985 13.9384 14.9403 14.0966C14.7821 14.2549 14.5675 14.3438 14.3437 14.3438H12.6562V15.1875H14.3437C14.5675 15.1875 14.7821 15.2764 14.9403 15.4346C15.0985 15.5929 15.1874 15.8075 15.1874 16.0312C15.1874 16.255 15.0985 16.4696 14.9403 16.6279C14.7821 16.7861 14.5675 16.875 14.3437 16.875H11.8124C11.5887 16.875 11.374 16.7861 11.2158 16.6279C11.0576 16.4696 10.9687 16.255 10.9687 16.0312V10.9688C10.9687 10.745 11.0576 10.5304 11.2158 10.3721C11.374 10.2139 11.5887 10.125 11.8124 10.125H14.3437C14.5675 10.125 14.7821 10.2139 14.9403 10.3721C15.0985 10.5304 15.1874 10.745 15.1874 10.9688C15.1874 11.1925 15.0985 11.4071 14.9403 11.5654C14.7821 11.7236 14.5675 11.8125 14.3437 11.8125H12.6562V12.6562H14.3437ZM21.0844 16.1663C21.053 16.3498 20.9628 16.5182 20.8273 16.6461C20.6919 16.7739 20.5185 16.8542 20.3335 16.875H20.2499C20.078 16.8736 19.9105 16.8205 19.769 16.7227C19.6276 16.6249 19.5188 16.4869 19.4568 16.3266L18.9843 15.0609L18.5118 16.3266C18.4482 16.5034 18.3275 16.6539 18.1687 16.7543C18.0099 16.8547 17.8221 16.8993 17.6351 16.8808C17.4481 16.8624 17.2727 16.7821 17.1365 16.6527C17.0003 16.5233 16.9112 16.3521 16.8834 16.1663L16.0396 11.1038C16.0038 10.8822 16.0575 10.6555 16.1888 10.4736C16.3201 10.2916 16.5184 10.1692 16.7399 10.1334C16.9615 10.0976 17.1882 10.1513 17.3701 10.2826C17.5521 10.414 17.6744 10.6122 17.7102 10.8337L18.0309 12.7913L18.1912 12.3609C18.2503 12.1981 18.3581 12.0573 18.5 11.9579C18.6419 11.8584 18.811 11.8051 18.9843 11.8051C19.1576 11.8051 19.3267 11.8584 19.4686 11.9579C19.6105 12.0573 19.7183 12.1981 19.7774 12.3609L19.9377 12.7913L20.2584 10.8337C20.2942 10.6122 20.4165 10.414 20.5985 10.2826C20.6886 10.2176 20.7906 10.171 20.8987 10.1454C21.0069 10.1198 21.119 10.1157 21.2287 10.1334C21.3384 10.1512 21.4435 10.1903 21.5381 10.2487C21.6326 10.307 21.7148 10.3835 21.7798 10.4736C21.8448 10.5637 21.8915 10.6657 21.9171 10.7738C21.9427 10.8819 21.9467 10.9941 21.929 11.1038L21.0844 16.1663Z" fill="url(#paint0_linear_1_2283)"/>
</g>
<defs>
<linearGradient id="paint0_linear_1_2283" x1="4.48024" y1="4.48031" x2="22.5196" y2="22.5197" gradientUnits="userSpaceOnUse">
<stop stop-color="#FDC830"/>
<stop offset="1" stop-color="#F37335"/>
</linearGradient>
<clipPath id="clip0_1_2283">
<rect width="27" height="27" fill="white"/>
</clipPath>
</defs>
</svg>
