<svg width="221" height="74" viewBox="0 0 221 74" fill="none" xmlns="http://www.w3.org/2000/svg">
<path d="M5.07881 66.1706C7.9129 61.615 12.8459 55.4687 20.0797 48.8102C23.6857 45.4743 27.8351 41.9349 32.3911 38.3169C36.9647 34.6947 41.9974 30.9814 47.6452 27.6756C50.4649 26.0051 53.4405 24.4453 56.5753 23.0876C59.7018 21.695 63 20.557 66.4258 19.721C69.8474 18.8675 73.4008 18.3336 76.9834 18.3099C80.571 18.2297 84.1621 18.6289 87.6824 19.5068C87.8782 19.5524 88.0608 19.6197 88.2566 19.6653C88.1325 19.8427 87.9867 20.0068 87.88 20.1801C85.5349 23.5291 83.7748 27.2373 82.6715 31.1397C81.564 35.0247 80.9782 39.0807 81.1908 43.1494C81.4383 47.2098 82.3926 51.2862 84.2752 55.0672C86.1669 58.8091 88.9428 62.3031 92.6419 64.7824C94.4122 66.0779 96.4642 67.1584 98.7336 67.91C100.999 68.644 103.587 69.0241 106.204 68.6765C111.509 67.9648 115.791 64.6708 118.369 60.823C121.048 56.8585 121.763 52.1805 121.342 48.0138C120.926 43.7904 119.494 39.8833 117.587 36.3112C115.659 32.7259 113.129 29.4873 110.202 26.676C106.549 23.1511 102.265 20.3126 97.645 18.2377C98.4782 17.4663 99.3547 16.7214 100.305 16.0514C105.809 11.9115 112.325 9.37743 118.784 8.07621C125.261 6.77082 131.69 6.65916 137.626 7.27459C143.549 7.91168 148.984 9.21925 153.712 10.9727C158.462 12.7395 162.67 14.9496 166.385 17.185C173.88 21.6217 179.448 26.3521 183.867 30.4516C188.228 34.6202 191.474 38.2237 193.818 41.3034C196.228 44.349 197.894 46.7592 199.131 48.607C200.218 50.1395 200.912 51.2669 201.479 52.0922C201.01 51.9086 200.562 51.7383 200.111 51.5505C196.192 50.0103 192.637 48.6788 189.612 47.6273C183.561 45.5245 179.662 44.5336 179.332 45.1665C179.003 45.7995 182.3 47.9129 187.918 50.8393C190.725 52.2938 194.102 53.9635 197.891 55.7377C198.369 55.9563 198.846 56.1748 199.328 56.4108C199.867 56.6518 200.466 56.9152 201.236 57.1194C201.628 57.2106 202.041 57.3152 202.529 57.3464C203.039 57.391 203.646 57.3755 204.193 57.2635C205.308 57.0529 206.353 56.471 207.134 55.638C208.517 54.0702 208.771 52.8089 209.218 51.8155C209.649 50.7521 210.075 49.6713 210.515 48.5688C217.446 31.0284 221.957 16.4482 220.557 16.0065C219.161 15.5822 212.41 29.4591 205.48 46.9996C205.183 47.7723 204.883 48.5275 204.586 49.3003C204.281 48.4864 203.872 47.5494 203.269 46.4186C202.254 44.3334 200.726 41.65 198.389 38.2914C196.101 34.9028 192.832 30.9722 188.349 26.4449C183.807 21.9867 178.029 16.9185 170.071 12.0935C166.11 9.67678 161.633 7.27215 156.371 5.29517C151.091 3.32237 145.164 1.89199 138.614 1.18298C132.067 0.491446 124.923 0.626155 117.62 2.11034C110.334 3.59036 102.788 6.53647 96.3543 11.4337C94.5553 12.7312 92.8714 14.2784 91.3126 15.9619C90.5383 15.7403 89.7857 15.532 89.0023 15.3495C85.0503 14.4453 80.9834 14.0672 76.9933 14.2436C73.0082 14.3633 69.1132 15.0157 65.4324 16.0233C61.7258 17.0002 58.2293 18.3149 54.9529 19.8541C51.6506 21.3626 48.5817 23.074 45.6995 24.8702C39.9176 28.4667 34.8607 32.3889 30.3506 36.1992C25.8446 40.0269 21.8028 43.7069 18.2426 47.235C11.1397 54.2871 6.39433 60.8321 3.88448 65.6613C2.60997 68.0713 1.81203 69.9982 1.33481 71.3313C0.896764 72.6735 0.714427 73.382 0.831938 73.4094C1.14113 73.4649 2.21888 70.6954 5.07881 66.1706ZM93.2568 23.2566C93.6158 22.746 93.9832 22.2704 94.3682 21.7906C98.8713 23.7641 103.025 26.5227 106.474 29.967C109.024 32.5172 111.196 35.4165 112.837 38.5717C114.46 41.7311 115.627 45.1473 115.907 48.5717C116.184 51.9785 115.522 55.4061 113.634 58.1105C111.771 60.8457 108.737 62.9366 105.657 63.2837C102.603 63.6616 99.1874 62.3707 96.4002 60.3018C93.5029 58.3147 91.3606 55.5377 89.8623 52.5147C88.3733 49.4526 87.6075 46.0886 87.4359 42.6566C87.2818 39.2205 87.826 35.7655 88.8003 32.485C89.7313 29.1779 91.2756 26.0384 93.2568 23.2566Z" fill="#D0DBE9"/>
</svg>
