<svg width="357" height="49" viewBox="0 0 357 49" fill="none" xmlns="http://www.w3.org/2000/svg">
<path d="M0.226497 43L6 48.7735L11.7735 43L6 37.2265L0.226497 43ZM356.773 6L351 0.226497L345.227 6L351 11.7735L356.773 6ZM241.291 13.2098L240.641 12.4501L241.291 13.2098ZM6 44H195.404V42H6V44ZM215.563 36.5499L241.941 13.9695L240.641 12.4501L214.263 35.0305L215.563 36.5499ZM260.8 7H351V5H260.8V7ZM241.941 13.9695C247.195 9.47181 253.884 7 260.8 7V5C253.407 5 246.257 7.64228 240.641 12.4501L241.941 13.9695ZM195.404 44C202.797 44 209.947 41.3577 215.563 36.5499L214.263 35.0305C209.009 39.5282 202.32 42 195.404 42V44Z" fill="#E0E0E0"/>
</svg>
