<svg width="31" height="31" viewBox="0 0 31 31" fill="none" xmlns="http://www.w3.org/2000/svg">
<g clip-path="url(#clip0_449_2526)">
<path fill-rule="evenodd" clip-rule="evenodd" d="M10.8806 26.1261L10.0436 25.2935C9.6164 25.1409 7.88134 24.3998 5.12181 21.4484L2.49307 18.8197C1.50783 17.8345 2.13559 16.1473 3.51753 16.0384C3.12518 15.0008 3.85321 13.8848 4.95615 13.8281C4.76434 13.244 4.91692 12.6031 5.35286 12.1628C5.64058 11.8751 6.0155 11.7182 6.39913 11.692C6.05473 10.7024 6.75224 9.521 7.94237 9.521C8.37831 9.521 8.7881 9.69101 9.09762 10.0005L10.9678 11.8707L12.2146 13.1175C13.3045 12.5508 14.7693 12.4636 15.5932 13.3355C17.0318 14.8613 16.6831 16.0427 16.3779 17.089C16.1294 17.9216 15.9201 18.6453 16.5697 19.5782L17.0013 20.0055L10.8806 26.1261Z" fill="#0540F2"/>
<path fill-rule="evenodd" clip-rule="evenodd" d="M14.4945 30.9999C14.1414 30.9999 13.7708 30.8299 13.4744 30.5378L11.4124 28.4758C10.959 28.0224 10.7498 27.2726 11.1988 26.8236L17.6638 20.3629C18.1041 19.9182 18.854 20.1144 19.3161 20.5765L21.3781 22.6385C21.8315 23.0919 22.0407 23.8417 21.5917 24.2907L15.1266 30.7514C14.9697 30.9127 14.743 30.9999 14.4945 30.9999Z" fill="#0540F2"/>
<path fill-rule="evenodd" clip-rule="evenodd" d="M6.8527 27.9398C6.38188 27.9398 6.03748 27.4864 6.15954 27.033L8.88856 16.845C8.95395 16.5965 9.13704 16.4047 9.39425 16.3393C9.92174 16.2085 10.4231 16.6662 10.2749 17.2199L7.54585 27.4035C7.46302 27.7174 7.17965 27.9398 6.8527 27.9398ZM10.8547 13.0087C10.3838 13.0087 10.0351 12.5596 10.1572 12.1063L13.2611 0.531935C13.3265 0.279087 13.5096 0.0872717 13.7668 0.0218801C14.2943 -0.108903 14.7956 0.353198 14.6474 0.902488L11.5478 12.4768C11.4606 12.7907 11.1773 13.0087 10.8547 13.0087Z" fill="#0540F2"/>
<path fill-rule="evenodd" clip-rule="evenodd" d="M25.2408 12.9821C20.5718 12.9821 16.766 10.0308 13.1738 9.1807L15.3405 1.08957C15.3884 0.910837 15.4015 0.73646 15.3841 0.570801C19.4209 1.495 23.5188 4.90845 28.5845 4.29377C28.9419 4.25017 29.1337 4.70355 28.8504 4.93024L24.8135 8.16931L26.8363 12.3893C26.9409 12.6116 26.8014 12.8688 26.5573 12.8993C26.1214 12.9516 25.6811 12.9821 25.2408 12.9821Z" fill="#0540F2"/>
</g>
<defs>
<clipPath id="clip0_449_2526">
<rect width="31" height="31" fill="white"/>
</clipPath>
</defs>
</svg>
