<svg width="35" height="35" viewBox="0 0 35 35" fill="none" xmlns="http://www.w3.org/2000/svg">
<path d="M25.9379 17.9044C26.2551 17.7021 26.4465 17.3521 26.4465 16.9747V12.4849L17.8934 15.9028L9.3457 12.4849V16.9747C9.3457 17.3521 9.53711 17.7021 9.8543 17.9044C15.2137 21.2677 20.5785 21.2677 25.9379 17.9044Z" fill="#0540F2"/>
<path d="M3.8385 23.3572C4.57131 23.2522 5.08046 22.5735 4.97546 21.8407L4.19561 16.3916C4.1628 16.1647 3.98835 15.9782 3.75483 15.9317C4.29296 15.8776 4.71678 15.4275 4.71678 14.8746C4.71678 14.4863 4.50624 14.1495 4.19616 13.9624V9.57484H5.01264C7.75741 10.6735 15.0582 13.5933 17.8937 14.727L26.4469 11.309L32.1453 9.02852L17.8932 3.33008L5.01592 8.48109H3.64874C3.34631 8.48109 3.10186 8.72609 3.10186 9.02797V13.9624C2.22577 14.4546 2.53967 15.8672 3.55413 15.9328C3.32553 15.9733 3.13631 16.1494 3.10186 16.3916L2.32202 21.8407C2.18639 22.7048 2.96897 23.4972 3.8385 23.3572Z" fill="#0540F2"/>
<path d="M33.3243 27.0627C33.1991 26.7876 32.8879 26.6607 32.6139 26.7865C32.2262 26.9156 27.9015 27.7014 21.5955 28.7881C20.8069 28.9237 20.2349 29.6035 20.2349 30.4046C20.2841 30.7574 20.0752 31.1276 19.688 31.1232H15.313C14.9274 31.1271 14.7153 30.7579 14.7661 30.4046C14.7661 29.604 14.1941 28.9237 13.406 28.7881C7.1312 27.7064 2.81799 26.9232 2.39362 26.7881C1.75596 26.5262 1.31627 27.4985 1.96104 27.7922C2.07698 27.8453 2.42916 28.006 13.2201 29.8654C13.5641 29.9174 13.7112 30.2586 13.6724 30.5758C13.6724 31.4803 14.4085 32.2164 15.313 32.2164H19.688C20.5925 32.2164 21.3286 31.4803 21.3286 30.5758C21.2876 30.2581 21.4391 29.9174 21.7809 29.8654C32.8967 27.825 33.571 28.1439 33.3243 27.0627Z" fill="#0540F2"/>
<path d="M31.7822 25.7244L29.1112 22.6094C24.7362 22.6094 19.7405 26.4501 17.5 30.0994C22.0445 26.9259 26.0788 25.5095 31.7822 25.7244Z" fill="#0540F2"/>
<path d="M3.21875 25.7244C8.92211 25.5095 12.9564 26.9259 17.5009 30.0994C15.2604 26.4495 10.2647 22.6094 5.88969 22.6094L3.21875 25.7244Z" fill="#0540F2"/>
</svg>
