<svg width="33" height="33" viewBox="0 0 33 33" fill="none" xmlns="http://www.w3.org/2000/svg">
<g clip-path="url(#clip0_449_2536)">
<path d="M29.6187 3.38127C27.4384 1.20094 24.5393 0 21.4551 0C18.3717 0 15.4725 1.20094 13.2922 3.38127C11.1116 5.56185 9.91093 8.46098 9.91093 11.5454C9.91093 14.3046 10.8727 16.9157 12.6366 18.9971L10.3022 21.331C9.10602 20.7141 7.59641 20.9067 6.59486 21.9085L0.931297 27.5721C0.330574 28.1728 0 28.9714 0 29.8212C0 30.6706 0.330574 31.4692 0.931297 32.07C1.55141 32.6901 2.36613 33 3.18011 33C3.99483 33 4.80881 32.6901 5.42892 32.07L11.0925 26.4061C11.6932 25.8054 12.0238 25.0068 12.0238 24.1573C12.0238 23.6412 11.9012 23.1435 11.6705 22.6973L14.0037 20.3642C16.0848 22.1291 18.6964 23.0901 21.4551 23.0901C24.5393 23.0901 27.4384 21.8891 29.6187 19.7086C31.7993 17.528 33 14.6288 33 11.5454C33 8.46098 31.7993 5.56185 29.6187 3.38127ZM17.5234 15.6704C17.5234 16.2042 17.0912 16.6375 16.5566 16.6375C16.0231 16.6375 15.5899 16.2042 15.5899 15.6704V12.5759C15.5899 12.0424 16.0231 11.6091 16.5566 11.6091C17.0912 11.6091 17.5234 12.0422 17.5234 12.5759V15.6704ZM20.7461 15.6704C20.7461 16.2042 20.3138 16.6375 19.7793 16.6375C19.2458 16.6375 18.8125 16.2042 18.8125 15.6704V9.35326C18.8125 8.8195 19.2458 8.38621 19.7793 8.38621C20.3138 8.38621 20.7461 8.8195 20.7461 9.35326V15.6704ZM23.9688 15.6704C23.9688 16.2042 23.5365 16.6375 23.002 16.6375C22.4685 16.6375 22.0352 16.2042 22.0352 15.6704V10.6423C22.0352 10.1086 22.4685 9.67552 23.002 9.67552C23.5365 9.67552 23.9688 10.1086 23.9688 10.6423V15.6704ZM27.1914 15.6704C27.1914 16.2042 26.7591 16.6375 26.2246 16.6375C25.6911 16.6375 25.2578 16.2042 25.2578 15.6704V7.41941C25.2578 6.88591 25.6911 6.45261 26.2246 6.45261C26.7591 6.45261 27.1914 6.88566 27.1914 7.41941V15.6704Z" fill="#0540F2"/>
</g>
<defs>
<clipPath id="clip0_449_2536">
<rect width="33" height="33" fill="white"/>
</clipPath>
</defs>
</svg>
